<?xml version="1.0" encoding="utf-8"?>
<!-- Generator: Adobe Illustrator 16.0.4, SVG Export Plug-In . SVG Version: 6.00 Build 0)  -->
<!DOCTYPE svg PUBLIC "-//W3C//DTD SVG 1.1//EN" "http://www.w3.org/Graphics/SVG/1.1/DTD/svg11.dtd">
<svg version="1.1" id="Layer_1" xmlns="http://www.w3.org/2000/svg" xmlns:xlink="http://www.w3.org/1999/xlink" x="0px" y="0px"
	 width="296px" height="274.667px" viewBox="0 0 296 274.667" enable-background="new 0 0 296 274.667" xml:space="preserve">
<polyline fill="none" stroke="#000000" stroke-miterlimit="10" points="122.236,145.568 91.433,219.497 161.011,190.392 "/>
<polyline fill="none" stroke="#000000" stroke-miterlimit="10" points="113.03,111.216 49.393,62.597 124.204,53.008 "/>
<path fill="none" stroke="#000000" stroke-miterlimit="10" d="M157.838,26.124c35.563-9.529,74.6,20.832,87.188,67.826
	c12.594,46.987-6.033,92.805-41.598,102.333c-35.566,9.526-74.603-20.839-87.191-67.822
	C103.645,81.468,122.271,35.651,157.838,26.124z"/>
<path fill="none" stroke="#000000" stroke-miterlimit="10" d="M169.566,49.229"/>
<path fill="none" stroke="#000000" stroke-miterlimit="10" d="M200.623,165.139"/>
<line fill="none" stroke="#000000" stroke-miterlimit="10" x1="173.872" y1="126.077" x2="184.869" y2="107.025"/>
<line fill="none" stroke="#000000" stroke-miterlimit="10" x1="184.935" y1="106.804" x2="165.197" y2="94.03"/>
<line fill="none" stroke="#000000" stroke-miterlimit="10" x1="173.523" y1="125.813" x2="164.978" y2="93.937"/>
<path fill="none" stroke="#000000" stroke-miterlimit="10" d="M183.812,106.481c12.512-3.352,17.58-24.917,11.344-48.217"/>
<path fill="none" stroke="#000000" stroke-miterlimit="10" d="M184.21,107.157c11.863-3.181,26.128,11.638,31.885,33.121"/>
<path fill="none" stroke="#000000" stroke-miterlimit="10" d="M150.375,126.524c7.814-2.093,15.839,2.543,17.941,10.355
	c2.09,7.817-2.547,15.848-10.359,17.943c-7.811,2.088-15.844-2.548-17.937-10.363C137.928,136.651,142.563,128.62,150.375,126.524z"
	/>
<path fill="none" stroke="#000000" stroke-miterlimit="10" d="M149.217,127.15c3.579-0.959,7.253,1.137,8.204,4.679
	c0.953,3.541-1.189,7.191-4.77,8.151c-3.581,0.964-7.257-1.136-8.205-4.682C143.496,131.761,145.634,128.108,149.217,127.15z"/>
<path fill="none" stroke="#000000" stroke-miterlimit="10" d="M140.798,90.785c7.816-2.094,15.844,2.548,17.939,10.358
	c2.095,7.812-2.541,15.844-10.357,17.936c-7.812,2.096-15.841-2.537-17.936-10.355C128.349,100.911,132.984,92.882,140.798,90.785z"
	/>
<path fill="none" stroke="#000000" stroke-miterlimit="10" d="M139.636,91.412c3.585-0.961,7.263,1.134,8.211,4.676
	c0.943,3.542-1.185,7.19-4.773,8.153c-3.579,0.96-7.254-1.138-8.205-4.675C133.92,96.023,136.057,92.374,139.636,91.412z"/>
<path fill="none" stroke="#000000" stroke-miterlimit="10" d="M201.06,113.327c3.992-6.778,1.645-15.558-5.264-19.624"/>
</svg>
