<?xml version="1.0" encoding="utf-8"?>
<!-- Generator: Adobe Illustrator 16.0.4, SVG Export Plug-In . SVG Version: 6.00 Build 0)  -->
<!DOCTYPE svg PUBLIC "-//W3C//DTD SVG 1.1//EN" "http://www.w3.org/Graphics/SVG/1.1/DTD/svg11.dtd">
<svg version="1.1" id="Layer_1" xmlns="http://www.w3.org/2000/svg" xmlns:xlink="http://www.w3.org/1999/xlink" x="0px" y="0px"
	 width="296px" height="274.667px" viewBox="0 0 296 274.667" enable-background="new 0 0 296 274.667" xml:space="preserve">
<polyline fill="none" stroke="#000000" stroke-miterlimit="10" points="158.537,85.001 158.707,4.912 105.555,58.429 "/>
<polyline fill="none" stroke="#000000" stroke-miterlimit="10" points="180.188,113.217 257.589,133.781 192.14,171.27 "/>
<ellipse transform="matrix(0.6088 0.7934 -0.7934 0.6088 156.4163 -38.9851)" fill="none" stroke="#000000" stroke-miterlimit="10" cx="117.735" cy="139.098" rx="88.08" ry="66.666"/>
<path fill="none" stroke="#000000" stroke-miterlimit="10" d="M151.676,192.12"/>
<path fill="none" stroke="#000000" stroke-miterlimit="10" d="M78.625,96.917"/>
<line fill="none" stroke="#000000" stroke-miterlimit="10" x1="118.292" y1="122.769" x2="115.421" y2="144.58"/>
<line fill="none" stroke="#000000" stroke-miterlimit="10" x1="115.445" y1="144.809" x2="138.568" y2="149.056"/>
<line fill="none" stroke="#000000" stroke-miterlimit="10" x1="118.714" y1="122.878" x2="138.805" y2="149.06"/>
<path fill="none" stroke="#000000" stroke-miterlimit="10" d="M116.606,144.678c-10.277,7.884-6.709,29.749,7.97,48.884"/>
<path fill="none" stroke="#000000" stroke-miterlimit="10" d="M115.976,144.206c-9.745,7.476-28.587-0.753-42.128-18.4"/>
<path fill="none" stroke="#000000" stroke-miterlimit="10" d="M139.827,113.362c-6.417,4.925-15.611,3.714-20.537-2.703
	c-4.924-6.418-3.713-15.611,2.704-20.537c6.417-4.922,15.61-3.713,20.535,2.705C147.453,99.244,146.242,108.439,139.827,113.362z"/>
<ellipse transform="matrix(0.6086 0.7935 -0.7935 0.6086 138.426 -66.4938)" fill="none" stroke="#000000" stroke-miterlimit="10" cx="136.616" cy="107.072" rx="6.641" ry="6.716"/>
<circle fill="none" stroke="#000000" stroke-miterlimit="10" cx="153.433" cy="131.098" r="14.646"/>
<path fill="none" stroke="#000000" stroke-miterlimit="10" d="M163.183,141.694c-2.941,2.261-7.141,1.733-9.373-1.177
	c-2.229-2.912-1.656-7.102,1.288-9.361c2.942-2.256,7.14-1.727,9.372,1.18C166.703,135.247,166.127,139.436,163.183,141.694z"/>
<path fill="none" stroke="#000000" stroke-miterlimit="10" d="M98.054,144.951c-1.097,7.791,4.433,15.002,12.369,16.115"/>
</svg>
