<?xml version="1.0" encoding="utf-8"?>
<!-- Generator: Adobe Illustrator 16.0.4, SVG Export Plug-In . SVG Version: 6.00 Build 0)  -->
<!DOCTYPE svg PUBLIC "-//W3C//DTD SVG 1.1//EN" "http://www.w3.org/Graphics/SVG/1.1/DTD/svg11.dtd">
<svg version="1.1" id="Layer_1" xmlns="http://www.w3.org/2000/svg" xmlns:xlink="http://www.w3.org/1999/xlink" x="0px" y="0px"
	 width="296px" height="274.667px" viewBox="0 0 296 274.667" enable-background="new 0 0 296 274.667" xml:space="preserve">
<polyline fill="none" stroke="#000000" stroke-miterlimit="10" points="162.042,86.349 172.665,6.967 112.982,53.088 "/>
<polyline fill="none" stroke="#000000" stroke-miterlimit="10" points="179.826,117.15 253.88,147.641 184.098,176.266 "/>
<ellipse transform="matrix(0.5 0.866 -0.866 0.5 173.8816 -31.856)" fill="none" stroke="#000000" stroke-miterlimit="10" cx="114.529" cy="134.657" rx="88.08" ry="66.666"/>
<path fill="none" stroke="#000000" stroke-miterlimit="10" d="M141.259,191.656"/>
<path fill="none" stroke="#000000" stroke-miterlimit="10" d="M81.259,87.733"/>
<line fill="none" stroke="#000000" stroke-miterlimit="10" x1="117.212" y1="118.541" x2="111.519" y2="139.791"/>
<line fill="none" stroke="#000000" stroke-miterlimit="10" x1="111.513" y1="140.021" x2="133.884" y2="147.25"/>
<line fill="none" stroke="#000000" stroke-miterlimit="10" x1="117.617" y1="118.705" x2="134.118" y2="147.283"/>
<path fill="none" stroke="#000000" stroke-miterlimit="10" d="M112.681,140.043c-11.218,6.475-10.535,28.619,1.521,49.506"/>
<path fill="none" stroke="#000000" stroke-miterlimit="10" d="M112.118,139.492c-10.637,6.141-28.245-4.479-39.366-23.742"/>
<path fill="none" stroke="#000000" stroke-miterlimit="10" d="M139.791,112.026c-7.005,4.045-15.962,1.645-20.008-5.36
	c-4.045-7.007-1.644-15.963,5.361-20.009c7.004-4.042,15.961-1.644,20.006,5.362C149.194,99.024,146.793,107.983,139.791,112.026z"
	/>
<ellipse transform="matrix(0.4999 0.8661 -0.8661 0.4999 159.9972 -66.3274)" fill="none" stroke="#000000" stroke-miterlimit="10" cx="137.428" cy="105.371" rx="6.641" ry="6.717"/>
<path fill="none" stroke="#000000" stroke-miterlimit="10" d="M158.289,144.07c-7.005,4.045-15.96,1.643-20.006-5.363
	c-4.044-7.004-1.646-15.961,5.36-20.005c7.006-4.045,15.962-1.646,20.007,5.358C167.695,131.069,165.294,140.023,158.289,144.07z"/>
<path fill="none" stroke="#000000" stroke-miterlimit="10" d="M159.25,143.164c-3.212,1.857-7.307,0.787-9.139-2.391
	c-1.831-3.178-0.715-7.256,2.499-9.113c3.212-1.853,7.304-0.779,9.138,2.392C163.58,137.23,162.462,141.309,159.25,143.164z"/>
<path fill="none" stroke="#000000" stroke-miterlimit="10" d="M94.252,137.893c-2.105,7.58,2.437,15.451,10.159,17.592"/>
</svg>
