<?xml version="1.0" encoding="utf-8"?>
<!-- Generator: Adobe Illustrator 16.0.4, SVG Export Plug-In . SVG Version: 6.00 Build 0)  -->
<!DOCTYPE svg PUBLIC "-//W3C//DTD SVG 1.1//EN" "http://www.w3.org/Graphics/SVG/1.1/DTD/svg11.dtd">
<svg version="1.1" id="Layer_1" xmlns="http://www.w3.org/2000/svg" xmlns:xlink="http://www.w3.org/1999/xlink" x="0px" y="0px"
	 width="296px" height="274.667px" viewBox="0 0 296 274.667" enable-background="new 0 0 296 274.667" xml:space="preserve">
<polyline fill="none" stroke="#000000" stroke-miterlimit="10" points="119.382,141.85 79.193,211.125 151.975,191.35 "/>
<polyline fill="none" stroke="#000000" stroke-miterlimit="10" points="114.738,106.589 57.992,50.08 133.414,50.337 "/>
<path fill="none" stroke="#000000" stroke-miterlimit="10" d="M170.27,28.075c36.503-4.807,71.243,30.391,77.59,78.626
	c6.353,48.229-18.095,91.223-54.599,96.028c-36.506,4.803-71.245-30.398-77.593-78.623C109.316,75.871,133.763,32.877,170.27,28.075
	z"/>
<path fill="none" stroke="#000000" stroke-miterlimit="10" d="M178.882,52.512"/>
<path fill="none" stroke="#000000" stroke-miterlimit="10" d="M194.543,171.484"/>
<line fill="none" stroke="#000000" stroke-miterlimit="10" x1="173.12" y1="129.265" x2="186.509" y2="111.812"/>
<line fill="none" stroke="#000000" stroke-miterlimit="10" x1="186.604" y1="111.6" x2="168.703" y2="96.36"/>
<line fill="none" stroke="#000000" stroke-miterlimit="10" x1="172.808" y1="128.958" x2="168.498" y2="96.239"/>
<path fill="none" stroke="#000000" stroke-miterlimit="10" d="M185.533,111.134c12.843-1.689,20.682-22.409,17.541-46.323"/>
<path fill="none" stroke="#000000" stroke-miterlimit="10" d="M185.839,111.856c12.178-1.604,24.386,14.949,27.289,37"/>
<path fill="none" stroke="#000000" stroke-miterlimit="10" d="M149.766,126.641c8.021-1.055,15.372,4.589,16.436,12.609
	c1.052,8.023-4.594,15.379-12.613,16.438c-8.017,1.051-15.375-4.594-16.431-12.615C136.103,135.057,141.748,127.7,149.766,126.641z"
	/>
<path fill="none" stroke="#000000" stroke-miterlimit="10" d="M148.537,127.111c3.673-0.483,7.043,2.074,7.523,5.709
	c0.483,3.635-2.118,6.975-5.792,7.459c-3.676,0.488-7.047-2.072-7.523-5.713C142.262,130.935,144.859,127.593,148.537,127.111z"/>
<path fill="none" stroke="#000000" stroke-miterlimit="10" d="M144.936,89.958c8.022-1.055,15.376,4.595,16.434,12.612
	c1.058,8.019-4.586,15.376-12.609,16.43c-8.019,1.059-15.375-4.583-16.431-12.607C131.271,98.373,136.916,91.016,144.936,89.958z"/>
<path fill="none" stroke="#000000" stroke-miterlimit="10" d="M143.702,90.428c3.68-0.485,7.053,2.071,7.53,5.707
	c0.473,3.635-2.113,6.975-5.796,7.461c-3.673,0.484-7.044-2.075-7.524-5.706C137.433,94.253,140.028,90.915,143.702,90.428z"/>
<path fill="none" stroke="#000000" stroke-miterlimit="10" d="M201.74,120.172c4.843-6.199,3.661-15.209-2.657-20.143"/>
</svg>
