<?xml version="1.0" encoding="utf-8"?>
<!-- Generator: Adobe Illustrator 16.0.4, SVG Export Plug-In . SVG Version: 6.00 Build 0)  -->
<!DOCTYPE svg PUBLIC "-//W3C//DTD SVG 1.1//EN" "http://www.w3.org/Graphics/SVG/1.1/DTD/svg11.dtd">
<svg version="1.1" id="Layer_1" xmlns="http://www.w3.org/2000/svg" xmlns:xlink="http://www.w3.org/1999/xlink" x="0px" y="0px"
	 width="296px" height="274.667px" viewBox="0 0 296 274.667" enable-background="new 0 0 296 274.667" xml:space="preserve">
<polyline fill="none" stroke="#000000" stroke-miterlimit="10" points="111.443,117.136 37.386,147.63 107.167,176.248 "/>
<polyline fill="none" stroke="#000000" stroke-miterlimit="10" points="129.224,86.335 118.605,6.959 178.283,53.077 "/>
<path fill="none" stroke="#000000" stroke-miterlimit="10" d="M221.076,57.851c31.887,18.407,38.02,67.48,13.693,109.612
	c-24.32,42.129-69.889,61.357-101.775,42.949c-31.885-18.416-38.017-67.49-13.695-109.614
	C143.623,58.664,189.191,39.438,221.076,57.851z"/>
<path fill="none" stroke="#000000" stroke-miterlimit="10" d="M213.033,82.481"/>
<path fill="none" stroke="#000000" stroke-miterlimit="10" d="M153.031,186.402"/>
<line fill="none" stroke="#000000" stroke-miterlimit="10" x1="161.737" y1="139.867" x2="182.984" y2="134.172"/>
<line fill="none" stroke="#000000" stroke-miterlimit="10" x1="183.187" y1="134.061" x2="178.262" y2="111.072"/>
<line fill="none" stroke="#000000" stroke-miterlimit="10" x1="161.677" y1="139.432" x2="178.173" y2="110.851"/>
<path fill="none" stroke="#000000" stroke-miterlimit="10" d="M182.623,133.039c11.218,6.478,30.048-5.189,42.115-26.072"/>
<path fill="none" stroke="#000000" stroke-miterlimit="10" d="M182.426,133.798c10.638,6.141,10.247,26.704-0.876,45.966"/>
<path fill="none" stroke="#000000" stroke-miterlimit="10" d="M144.807,123.567c7.005,4.046,9.403,12.999,5.364,20.008
	c-4.051,7.005-13.007,9.405-20.014,5.364c-7-4.047-9.401-13.006-5.357-20.011C128.844,121.926,137.801,119.525,144.807,123.567z"/>
<path fill="none" stroke="#000000" stroke-miterlimit="10" d="M143.545,123.192c3.209,1.852,4.324,5.933,2.492,9.109
	c-1.83,3.177-5.927,4.243-9.135,2.391c-3.214-1.851-4.33-5.935-2.492-9.112C136.239,122.406,140.334,121.335,143.545,123.192z"/>
<path fill="none" stroke="#000000" stroke-miterlimit="10" d="M163.306,91.525c7.006,4.047,9.402,13.004,5.359,20.009
	s-12.999,9.406-20.005,5.358c-7.006-4.042-9.407-12.995-5.361-20.004C147.341,89.882,156.298,87.482,163.306,91.525z"/>
<path fill="none" stroke="#000000" stroke-miterlimit="10" d="M162.041,91.146c3.215,1.855,4.334,5.936,2.499,9.11
	c-1.838,3.173-5.922,4.249-9.14,2.393c-3.208-1.854-4.326-5.935-2.496-9.108C154.738,90.364,158.83,89.296,162.041,91.146z"/>
<path fill="none" stroke="#000000" stroke-miterlimit="10" d="M189.978,150.077c7.617-1.973,12.163-9.839,10.153-17.6"/>
</svg>
