<?xml version="1.0" encoding="utf-8"?>
<!-- Generator: Adobe Illustrator 16.0.4, SVG Export Plug-In . SVG Version: 6.00 Build 0)  -->
<!DOCTYPE svg PUBLIC "-//W3C//DTD SVG 1.1//EN" "http://www.w3.org/Graphics/SVG/1.1/DTD/svg11.dtd">
<svg version="1.1" id="Layer_1" xmlns="http://www.w3.org/2000/svg" xmlns:xlink="http://www.w3.org/1999/xlink" x="0px" y="0px"
	 width="296px" height="274.667px" viewBox="0 0 296 274.667" enable-background="new 0 0 296 274.667" xml:space="preserve">
<polyline fill="none" stroke="#000000" stroke-miterlimit="10" points="175.896,105.211 232.648,48.7 157.222,48.959 "/>
<polyline fill="none" stroke="#000000" stroke-miterlimit="10" points="171.256,140.472 211.445,209.744 138.658,189.974 "/>
<path fill="none" stroke="#000000" stroke-miterlimit="10" d="M97.297,201.939c-36.504-4.806-60.951-47.798-54.599-96.03
	c6.347-48.227,41.088-83.43,77.593-78.625c36.503,4.807,60.948,47.802,54.597,96.028
	C168.541,171.545,133.802,206.747,97.297,201.939z"/>
<path fill="none" stroke="#000000" stroke-miterlimit="10" d="M95.302,176.104"/>
<path fill="none" stroke="#000000" stroke-miterlimit="10" d="M110.964,57.131"/>
<line fill="none" stroke="#000000" stroke-miterlimit="10" x1="120.735" y1="103.458" x2="103.281" y2="116.852"/>
<line fill="none" stroke="#000000" stroke-miterlimit="10" x1="103.136" y1="117.031" x2="116.483" y2="136.385"/>
<line fill="none" stroke="#000000" stroke-miterlimit="10" x1="120.955" y1="103.835" x2="116.649" y2="136.555"/>
<path fill="none" stroke="#000000" stroke-miterlimit="10" d="M104.049,117.761c-12.841-1.692-25.778,16.29-28.93,40.202"/>
<path fill="none" stroke="#000000" stroke-miterlimit="10" d="M103.938,116.981c-12.177-1.604-19.682-20.75-16.778-42.802"/>
<circle fill="none" stroke="#000000" stroke-miterlimit="10" cx="144.524" cy="97.514" r="14.647"/>
<ellipse transform="matrix(-0.1307 0.9914 -0.9914 -0.1307 268.1298 -24.465)" fill="none" stroke="#000000" stroke-miterlimit="10" cx="144.791" cy="105.317" rx="6.642" ry="6.716"/>
<path fill="none" stroke="#000000" stroke-miterlimit="10" d="M137.78,148.72c-8.02-1.056-13.662-8.414-12.606-16.435
	c1.055-8.019,8.41-13.665,16.431-12.607c8.021,1.054,13.666,8.411,12.609,16.431C153.158,144.131,145.802,149.773,137.78,148.72z"/>
<path fill="none" stroke="#000000" stroke-miterlimit="10" d="M139.094,148.585c-3.678-0.482-6.275-3.824-5.794-7.46
	c0.48-3.635,3.848-6.191,7.529-5.709c3.675,0.485,6.269,3.829,5.793,7.461C146.142,146.513,142.772,149.069,139.094,148.585z"/>
<path fill="none" stroke="#000000" stroke-miterlimit="10" d="M90.737,104.835c-6.284,4.733-7.473,13.741-2.648,20.142"/>
</svg>
