<?xml version="1.0" encoding="utf-8"?>
<!-- Generator: Adobe Illustrator 16.0.4, SVG Export Plug-In . SVG Version: 6.00 Build 0)  -->
<!DOCTYPE svg PUBLIC "-//W3C//DTD SVG 1.1//EN" "http://www.w3.org/Graphics/SVG/1.1/DTD/svg11.dtd">
<svg version="1.1" id="Layer_1" xmlns="http://www.w3.org/2000/svg" xmlns:xlink="http://www.w3.org/1999/xlink" x="0px" y="0px"
	 width="296px" height="274.667px" viewBox="0 0 296 274.667" enable-background="new 0 0 296 274.667" xml:space="preserve">
<polyline fill="none" stroke="#000000" stroke-miterlimit="10" points="168.742,144.357 238.015,184.549 218.244,111.763 "/>
<polyline fill="none" stroke="#000000" stroke-miterlimit="10" points="133.481,149.003 76.971,205.749 77.229,130.326 "/>
<path fill="none" stroke="#000000" stroke-miterlimit="10" d="M54.966,93.471C50.16,56.967,85.36,22.227,133.593,15.88
	c48.227-6.353,91.222,18.095,96.027,54.6c4.803,36.504-30.397,71.243-78.624,77.592C102.763,154.424,59.77,129.977,54.966,93.471z"
	/>
<path fill="none" stroke="#000000" stroke-miterlimit="10" d="M79.404,84.858"/>
<path fill="none" stroke="#000000" stroke-miterlimit="10" d="M198.376,69.196"/>
<line fill="none" stroke="#000000" stroke-miterlimit="10" x1="156.158" y1="90.622" x2="138.702" y2="77.23"/>
<line fill="none" stroke="#000000" stroke-miterlimit="10" x1="138.492" y1="77.137" x2="123.252" y2="95.038"/>
<line fill="none" stroke="#000000" stroke-miterlimit="10" x1="155.85" y1="90.931" x2="123.131" y2="95.242"/>
<path fill="none" stroke="#000000" stroke-miterlimit="10" d="M138.024,78.208c-1.689-12.843-22.408-20.684-46.32-17.541"/>
<path fill="none" stroke="#000000" stroke-miterlimit="10" d="M138.749,77.898c-1.604-12.176,14.946-24.383,36.999-27.285"/>
<path fill="none" stroke="#000000" stroke-miterlimit="10" d="M153.534,113.975c-1.055-8.022,4.589-15.374,12.609-16.434
	c8.022-1.055,15.378,4.589,16.437,12.61c1.051,8.018-4.592,15.376-12.615,16.433C161.949,127.638,154.591,121.992,153.534,113.975z"
	/>
<path fill="none" stroke="#000000" stroke-miterlimit="10" d="M154.002,115.204c-0.484-3.675,2.073-7.044,5.71-7.522
	c3.635-0.48,6.976,2.113,7.459,5.791c0.486,3.677-2.072,7.047-5.711,7.525C157.826,121.478,154.485,118.883,154.002,115.204z"/>
<path fill="none" stroke="#000000" stroke-miterlimit="10" d="M116.85,118.803c-1.057-8.021,4.593-15.376,12.613-16.431
	c8.018-1.059,15.376,4.585,16.43,12.608c1.058,8.019-4.586,15.375-12.608,16.431C125.261,132.469,117.908,126.824,116.85,118.803z"
	/>
<path fill="none" stroke="#000000" stroke-miterlimit="10" d="M117.319,120.038c-0.484-3.681,2.07-7.055,5.708-7.53
	c3.633-0.475,6.975,2.115,7.46,5.796c0.485,3.676-2.074,7.044-5.706,7.524C121.146,126.309,117.806,123.711,117.319,120.038z"/>
<path fill="none" stroke="#000000" stroke-miterlimit="10" d="M147.064,62.002c-6.199-4.846-15.209-3.661-20.141,2.655"/>
</svg>
