<?xml version="1.0" encoding="utf-8"?>
<!-- Generator: Adobe Illustrator 16.0.4, SVG Export Plug-In . SVG Version: 6.00 Build 0)  -->
<!DOCTYPE svg PUBLIC "-//W3C//DTD SVG 1.1//EN" "http://www.w3.org/Graphics/SVG/1.1/DTD/svg11.dtd">
<svg version="1.1" id="Layer_1" xmlns="http://www.w3.org/2000/svg" xmlns:xlink="http://www.w3.org/1999/xlink" x="0px" y="0px"
	 width="296px" height="274.667px" viewBox="0 0 296 274.667" enable-background="new 0 0 296 274.667" xml:space="preserve">
<polyline fill="none" stroke="#000000" stroke-miterlimit="10" points="179.191,119.71 253.248,89.219 183.465,60.595 "/>
<polyline fill="none" stroke="#000000" stroke-miterlimit="10" points="161.41,150.512 172.029,229.89 112.35,183.771 "/>
<path fill="none" stroke="#000000" stroke-miterlimit="10" d="M69.558,178.997c-31.887-18.41-38.019-67.484-13.692-109.614
	C80.184,27.256,125.752,8.027,157.64,26.437c31.885,18.41,38.016,67.486,13.691,109.612
	C147.01,178.18,101.444,197.409,69.558,178.997z"/>
<path fill="none" stroke="#000000" stroke-miterlimit="10" d="M77.602,154.366"/>
<path fill="none" stroke="#000000" stroke-miterlimit="10" d="M137.601,50.442"/>
<line fill="none" stroke="#000000" stroke-miterlimit="10" x1="128.899" y1="96.981" x2="107.648" y2="102.677"/>
<line fill="none" stroke="#000000" stroke-miterlimit="10" x1="107.446" y1="102.787" x2="112.37" y2="125.774"/>
<line fill="none" stroke="#000000" stroke-miterlimit="10" x1="128.957" y1="97.414" x2="112.458" y2="125.995"/>
<path fill="none" stroke="#000000" stroke-miterlimit="10" d="M108.01,103.81c-11.216-6.477-30.05,5.186-42.112,26.071"/>
<path fill="none" stroke="#000000" stroke-miterlimit="10" d="M108.206,103.047c-10.636-6.141-10.244-26.7,0.878-45.963"/>
<path fill="none" stroke="#000000" stroke-miterlimit="10" d="M145.828,113.279c-7.006-4.046-9.404-13.001-5.362-20.009
	c4.046-7.006,13.002-9.405,20.01-5.362c7.002,4.047,9.404,13.003,5.358,20.011C161.791,114.922,152.831,117.321,145.828,113.279z"/>
<path fill="none" stroke="#000000" stroke-miterlimit="10" d="M147.089,113.657c-3.211-1.854-4.327-5.934-2.493-9.109
	c1.832-3.179,5.924-4.248,9.138-2.395c3.209,1.854,4.328,5.937,2.493,9.111C154.394,114.441,150.302,115.513,147.089,113.657z"/>
<circle fill="none" stroke="#000000" stroke-miterlimit="10" cx="134.65" cy="132.637" r="14.647"/>
<path fill="none" stroke="#000000" stroke-miterlimit="10" d="M128.592,145.699c-3.214-1.854-4.335-5.935-2.498-9.11
	c1.834-3.173,5.924-4.246,9.14-2.392c3.21,1.854,4.326,5.937,2.497,9.109C135.896,146.482,131.803,147.554,128.592,145.699z"/>
<path fill="none" stroke="#000000" stroke-miterlimit="10" d="M100.657,86.773c-7.617,1.969-12.162,9.837-10.154,17.596"/>
</svg>
