<?xml version="1.0" encoding="utf-8"?>
<!-- Generator: Adobe Illustrator 16.0.4, SVG Export Plug-In . SVG Version: 6.00 Build 0)  -->
<!DOCTYPE svg PUBLIC "-//W3C//DTD SVG 1.1//EN" "http://www.w3.org/Graphics/SVG/1.1/DTD/svg11.dtd">
<svg version="1.1" id="Layer_1" xmlns="http://www.w3.org/2000/svg" xmlns:xlink="http://www.w3.org/1999/xlink" x="0px" y="0px"
	 width="296px" height="274.667px" viewBox="0 0 296 274.667" enable-background="new 0 0 296 274.667" xml:space="preserve">
<polyline fill="none" stroke="#000000" stroke-miterlimit="10" points="177.392,135.149 256.772,145.771 210.652,86.093 "/>
<polyline fill="none" stroke="#000000" stroke-miterlimit="10" points="146.592,152.937 116.1,226.986 87.475,157.206 "/>
<path fill="none" stroke="#000000" stroke-miterlimit="10" d="M52.803,131.677C34.393,99.791,53.62,54.225,95.752,29.902
	c42.124-24.323,91.202-18.192,109.612,13.695c18.408,31.887-0.82,77.453-42.947,101.773
	C120.287,169.697,71.211,163.565,52.803,131.677z"/>
<path fill="none" stroke="#000000" stroke-miterlimit="10" d="M72.084,114.368"/>
<path fill="none" stroke="#000000" stroke-miterlimit="10" d="M176.007,54.369"/>
<line fill="none" stroke="#000000" stroke-miterlimit="10" x1="145.202" y1="90.32" x2="123.95" y2="84.628"/>
<line fill="none" stroke="#000000" stroke-miterlimit="10" x1="123.72" y1="84.622" x2="116.491" y2="106.992"/>
<line fill="none" stroke="#000000" stroke-miterlimit="10" x1="145.035" y1="90.724" x2="116.457" y2="107.228"/>
<path fill="none" stroke="#000000" stroke-miterlimit="10" d="M123.698,85.79c-6.475-11.218-28.618-10.534-49.507,1.521"/>
<path fill="none" stroke="#000000" stroke-miterlimit="10" d="M124.249,85.228c-6.141-10.636,4.479-28.246,23.741-39.367"/>
<path fill="none" stroke="#000000" stroke-miterlimit="10" d="M151.714,112.899c-4.044-7.007-1.644-15.96,5.361-20.008
	c7.007-4.045,15.963-1.646,20.009,5.36c4.04,7.005,1.644,15.963-5.365,20.009C164.716,122.304,155.758,119.901,151.714,112.899z"/>
<path fill="none" stroke="#000000" stroke-miterlimit="10" d="M152.617,113.856c-1.853-3.21-0.78-7.302,2.396-9.135
	c3.175-1.836,7.254-0.718,9.109,2.495c1.854,3.211,0.78,7.305-2.396,9.138C158.552,118.188,154.472,117.07,152.617,113.856z"/>
<path fill="none" stroke="#000000" stroke-miterlimit="10" d="M119.67,131.398c-4.045-7.005-1.641-15.962,5.365-20.007
	c7.002-4.046,15.96-1.647,20.004,5.36c4.045,7.005,1.646,15.961-5.36,20.007C132.671,140.805,123.717,138.404,119.67,131.398z"/>
<path fill="none" stroke="#000000" stroke-miterlimit="10" d="M120.577,132.359c-1.856-3.214-0.787-7.309,2.392-9.141
	c3.175-1.83,7.254-0.715,9.111,2.499c1.854,3.211,0.779,7.303-2.392,9.137C126.512,136.688,122.431,135.567,120.577,132.359z"/>
<path fill="none" stroke="#000000" stroke-miterlimit="10" d="M125.847,67.358c-7.581-2.104-15.451,2.438-17.591,10.162"/>
</svg>
