<?xml version="1.0" encoding="utf-8"?>
<!-- Generator: Adobe Illustrator 16.0.4, SVG Export Plug-In . SVG Version: 6.00 Build 0)  -->
<!DOCTYPE svg PUBLIC "-//W3C//DTD SVG 1.1//EN" "http://www.w3.org/Graphics/SVG/1.1/DTD/svg11.dtd">
<svg version="1.1" id="Layer_1" xmlns="http://www.w3.org/2000/svg" xmlns:xlink="http://www.w3.org/1999/xlink" x="0px" y="0px"
	 width="296px" height="274.667px" viewBox="0 0 296 274.667" enable-background="new 0 0 296 274.667" xml:space="preserve">
<polyline fill="none" stroke="#000000" stroke-miterlimit="10" points="154.805,84.302 144.519,4.876 98.807,64.874 "/>
<polyline fill="none" stroke="#000000" stroke-miterlimit="10" points="179.953,109.451 259.376,119.736 199.38,165.447 "/>
<ellipse transform="matrix(0.7071 0.7071 -0.7071 0.7071 136.8627 -43.8909)" fill="none" stroke="#000000" stroke-miterlimit="10" cx="121.412" cy="143.262" rx="88.081" ry="66.666"/>
<path fill="none" stroke="#000000" stroke-miterlimit="10" d="M161.984,191.4"/>
<path fill="none" stroke="#000000" stroke-miterlimit="10" d="M77.131,106.547"/>
<line fill="none" stroke="#000000" stroke-miterlimit="10" x1="119.833" y1="127" x2="119.833" y2="149"/>
<line fill="none" stroke="#000000" stroke-miterlimit="10" x1="119.888" y1="149.223" x2="143.367" y2="150.416"/>
<line fill="none" stroke="#000000" stroke-miterlimit="10" x1="120.266" y1="127.053" x2="143.602" y2="150.389"/>
<path fill="none" stroke="#000000" stroke-miterlimit="10" d="M121.021,148.941c-9.16,9.158-2.77,30.371,14.282,47.426"/>
<path fill="none" stroke="#000000" stroke-miterlimit="10" d="M120.335,148.557c-8.686,8.684-28.441,2.984-44.169-12.744"/>
<circle fill="none" stroke="#000000" stroke-miterlimit="10" cx="129.599" cy="104.507" r="14.647"/>
<ellipse transform="matrix(0.707 0.7072 -0.7072 0.707 116.9536 -64.1968)" fill="none" stroke="#000000" stroke-miterlimit="10" cx="135.952" cy="109.046" rx="6.641" ry="6.717"/>
<circle fill="none" stroke="#000000" stroke-miterlimit="10" cx="155.761" cy="130.671" r="14.646"/>
<path fill="none" stroke="#000000" stroke-miterlimit="10" d="M166.811,139.904c-2.622,2.625-6.854,2.65-9.446,0.057
	c-2.591-2.596-2.569-6.824,0.055-9.449c2.622-2.621,6.854-2.645,9.445-0.054C169.458,133.053,169.435,137.281,166.811,139.904z"/>
<path fill="none" stroke="#000000" stroke-miterlimit="10" d="M102.664,151.635c-0.071,7.867,6.353,14.295,14.366,14.363"/>
</svg>
