<?xml version="1.0" encoding="utf-8"?>
<!-- Generator: Adobe Illustrator 16.0.4, SVG Export Plug-In . SVG Version: 6.00 Build 0)  -->
<!DOCTYPE svg PUBLIC "-//W3C//DTD SVG 1.1//EN" "http://www.w3.org/Graphics/SVG/1.1/DTD/svg11.dtd">
<svg version="1.1" id="Layer_1" xmlns="http://www.w3.org/2000/svg" xmlns:xlink="http://www.w3.org/1999/xlink" x="0px" y="0px"
	 width="296px" height="274.667px" viewBox="0 0 296 274.667" enable-background="new 0 0 296 274.667" xml:space="preserve">
<polyline fill="none" stroke="#000000" stroke-miterlimit="10" points="178.4,115.199 247.843,75.303 174.921,56.031 "/>
<polyline fill="none" stroke="#000000" stroke-miterlimit="10" points="164.792,148.058 185.681,225.37 120.492,187.436 "/>
<path fill="none" stroke="#000000" stroke-miterlimit="10" d="M77.443,188.289C43.426,174.198,30.94,126.345,49.56,81.399
	c18.612-44.94,61.281-69.952,95.298-55.862c34.016,14.09,46.5,61.946,27.882,106.887
	C154.126,177.369,111.459,202.381,77.443,188.289z"/>
<path fill="none" stroke="#000000" stroke-miterlimit="10" d="M82.203,162.818"/>
<path fill="none" stroke="#000000" stroke-miterlimit="10" d="M128.125,51.952"/>
<line fill="none" stroke="#000000" stroke-miterlimit="10" x1="125.571" y1="99.229" x2="105.246" y2="107.649"/>
<line fill="none" stroke="#000000" stroke-miterlimit="10" x1="105.06" y1="107.785" x2="112.942" y2="129.934"/>
<line fill="none" stroke="#000000" stroke-miterlimit="10" x1="125.686" y1="99.65" x2="113.059" y2="130.141"/>
<path fill="none" stroke="#000000" stroke-miterlimit="10" d="M105.752,108.726c-11.965-4.957-29.116,9.063-38.349,31.345"/>
<path fill="none" stroke="#000000" stroke-miterlimit="10" d="M105.847,107.944c-11.347-4.7-13.642-25.136-5.129-45.685"/>
<path fill="none" stroke="#000000" stroke-miterlimit="10" d="M144.483,113.178c-7.474-3.097-11.02-11.662-7.927-19.138
	c3.097-7.474,11.664-11.021,19.139-7.928c7.47,3.098,11.02,11.664,7.924,19.14C160.523,112.723,151.954,116.271,144.483,113.178z"/>
<ellipse transform="matrix(-0.3829 0.9238 -0.9238 -0.3829 304.1953 11.2921)" fill="none" stroke="#000000" stroke-miterlimit="10" cx="148.326" cy="107.251" rx="6.642" ry="6.716"/>
<circle fill="none" stroke="#000000" stroke-miterlimit="10" cx="135.927" cy="133.829" r="14.646"/>
<path fill="none" stroke="#000000" stroke-miterlimit="10" d="M131.626,147.57c-3.428-1.418-5.072-5.318-3.666-8.706
	c1.405-3.386,5.319-4.983,8.75-3.564c3.425,1.42,5.064,5.321,3.665,8.705C138.97,147.394,135.052,148.99,131.626,147.57z"/>
<path fill="none" stroke="#000000" stroke-miterlimit="10" d="M96.239,92.795c-7.295,2.946-10.774,11.34-7.771,18.771"/>
</svg>
