<?xml version="1.0" encoding="utf-8"?>
<!-- Generator: Adobe Illustrator 16.0.4, SVG Export Plug-In . SVG Version: 6.00 Build 0)  -->
<!DOCTYPE svg PUBLIC "-//W3C//DTD SVG 1.1//EN" "http://www.w3.org/Graphics/SVG/1.1/DTD/svg11.dtd">
<svg version="1.1" id="Layer_1" xmlns="http://www.w3.org/2000/svg" xmlns:xlink="http://www.w3.org/1999/xlink" x="0px" y="0px"
	 width="296px" height="274.667px" viewBox="0 0 296 274.667" enable-background="new 0 0 296 274.667" xml:space="preserve">
<polyline fill="none" stroke="#000000" stroke-miterlimit="10" points="112.233,121.647 42.791,161.547 115.71,180.812 "/>
<polyline fill="none" stroke="#000000" stroke-miterlimit="10" points="125.842,88.789 104.953,11.479 170.14,49.412 "/>
<path fill="none" stroke="#000000" stroke-miterlimit="10" d="M213.191,48.56c34.017,14.088,46.502,61.94,27.883,106.887
	c-18.613,44.943-61.282,69.955-95.299,55.866c-34.016-14.097-46.501-61.95-27.885-106.889
	C136.506,59.476,179.175,34.466,213.191,48.56z"/>
<path fill="none" stroke="#000000" stroke-miterlimit="10" d="M208.431,74.029"/>
<path fill="none" stroke="#000000" stroke-miterlimit="10" d="M162.507,184.893"/>
<line fill="none" stroke="#000000" stroke-miterlimit="10" x1="165.064" y1="137.619" x2="185.386" y2="129.199"/>
<line fill="none" stroke="#000000" stroke-miterlimit="10" x1="185.574" y1="129.062" x2="177.69" y2="106.914"/>
<line fill="none" stroke="#000000" stroke-miterlimit="10" x1="164.949" y1="137.195" x2="177.573" y2="106.706"/>
<path fill="none" stroke="#000000" stroke-miterlimit="10" d="M184.88,128.124c11.967,4.958,29.113-9.067,38.352-31.347"/>
<path fill="none" stroke="#000000" stroke-miterlimit="10" d="M184.785,128.901c11.348,4.7,13.645,25.139,5.132,45.688"/>
<path fill="none" stroke="#000000" stroke-miterlimit="10" d="M146.151,123.669c7.474,3.097,11.02,11.66,7.929,19.137
	c-3.102,7.474-11.667,11.022-19.142,7.931c-7.468-3.099-11.018-11.667-7.923-19.141
	C130.111,124.125,138.678,120.576,146.151,123.669z"/>
<path fill="none" stroke="#000000" stroke-miterlimit="10" d="M144.852,123.462c3.423,1.417,5.062,5.317,3.66,8.706
	c-1.399,3.389-5.322,4.98-8.745,3.562c-3.428-1.415-5.067-5.318-3.66-8.709C137.506,123.636,141.425,122.039,144.852,123.462z"/>
<path fill="none" stroke="#000000" stroke-miterlimit="10" d="M160.31,89.486c7.475,3.098,11.02,11.666,7.926,19.138
	c-3.094,7.473-11.66,11.023-19.135,7.924c-7.474-3.093-11.022-11.655-7.926-19.133C144.268,89.94,152.834,86.393,160.31,89.486z"/>
<path fill="none" stroke="#000000" stroke-miterlimit="10" d="M159.006,89.275c3.43,1.421,5.071,5.32,3.667,8.707
	c-1.408,3.386-5.317,4.985-8.75,3.564c-3.422-1.418-5.062-5.319-3.663-8.704C151.664,89.454,155.582,87.86,159.006,89.275z"/>
<path fill="none" stroke="#000000" stroke-miterlimit="10" d="M194.396,144.056c7.295-2.949,10.775-11.342,7.77-18.774"/>
</svg>
