<?xml version="1.0" encoding="utf-8"?>
<!-- Generator: Adobe Illustrator 16.0.4, SVG Export Plug-In . SVG Version: 6.00 Build 0)  -->
<!DOCTYPE svg PUBLIC "-//W3C//DTD SVG 1.1//EN" "http://www.w3.org/Graphics/SVG/1.1/DTD/svg11.dtd">
<svg version="1.1" id="Layer_1" xmlns="http://www.w3.org/2000/svg" xmlns:xlink="http://www.w3.org/1999/xlink" x="0px" y="0px"
	 width="296px" height="274.667px" viewBox="0 0 296 274.667" enable-background="new 0 0 296 274.667" xml:space="preserve">
<polyline fill="none" stroke="#000000" stroke-miterlimit="10" points="125.305,148.43 104.415,225.747 169.599,187.809 "/>
<polyline fill="none" stroke="#000000" stroke-miterlimit="10" points="111.693,115.573 42.255,75.676 115.174,56.404 "/>
<path fill="none" stroke="#000000" stroke-miterlimit="10" d="M145.012,25.36c34.015-14.089,76.681,10.917,95.295,55.865
	c18.62,44.942,6.133,92.799-27.885,106.888c-34.019,14.087-76.684-10.923-95.297-55.861C98.505,87.305,110.992,39.449,145.012,25.36
	z"/>
<path fill="none" stroke="#000000" stroke-miterlimit="10" d="M159.655,46.736"/>
<path fill="none" stroke="#000000" stroke-miterlimit="10" d="M205.576,157.602"/>
<line fill="none" stroke="#000000" stroke-miterlimit="10" x1="173.955" y1="122.366" x2="182.371" y2="102.042"/>
<line fill="none" stroke="#000000" stroke-miterlimit="10" x1="182.408" y1="101.813" x2="161.171" y2="91.726"/>
<line fill="none" stroke="#000000" stroke-miterlimit="10" x1="173.575" y1="122.149" x2="160.942" y2="91.661"/>
<path fill="none" stroke="#000000" stroke-miterlimit="10" d="M181.251,101.641c11.968-4.956,14.178-26.999,4.954-49.285"/>
<path fill="none" stroke="#000000" stroke-miterlimit="10" d="M181.736,102.258c11.347-4.701,27.423,8.128,35.935,28.677"/>
<path fill="none" stroke="#000000" stroke-miterlimit="10" d="M150.717,125.876c7.475-3.095,16.036,0.454,19.139,7.926
	c3.093,7.478-0.456,16.044-7.928,19.142c-7.472,3.09-16.042-0.458-19.137-7.934C139.698,137.541,143.246,128.974,150.717,125.876z"
	/>
<path fill="none" stroke="#000000" stroke-miterlimit="10" d="M149.651,126.647c3.423-1.418,7.34,0.181,8.745,3.568
	c1.406,3.387-0.24,7.285-3.665,8.704c-3.424,1.423-7.343-0.179-8.746-3.57C144.581,131.965,146.224,128.065,149.651,126.647z"/>
<path fill="none" stroke="#000000" stroke-miterlimit="10" d="M136.558,91.692c7.476-3.096,16.042,0.458,19.137,7.929
	c3.098,7.472-0.45,16.04-7.927,19.134c-7.472,3.098-16.037-0.448-19.133-7.926C125.536,103.356,129.084,94.791,136.558,91.692z"/>
<path fill="none" stroke="#000000" stroke-miterlimit="10" d="M135.487,92.466c3.429-1.421,7.349,0.176,8.751,3.564
	c1.397,3.388-0.237,7.283-3.669,8.706c-3.423,1.419-7.34-0.181-8.745-3.563C130.422,97.784,132.064,93.887,135.487,92.466z"/>
<path fill="none" stroke="#000000" stroke-miterlimit="10" d="M199.247,106.177c3.072-7.242-0.401-15.64-7.78-18.77"/>
</svg>
