<?xml version="1.0" encoding="utf-8"?>
<!-- Generator: Adobe Illustrator 16.0.4, SVG Export Plug-In . SVG Version: 6.00 Build 0)  -->
<!DOCTYPE svg PUBLIC "-//W3C//DTD SVG 1.1//EN" "http://www.w3.org/Graphics/SVG/1.1/DTD/svg11.dtd">
<svg version="1.1" id="Layer_1" xmlns="http://www.w3.org/2000/svg" xmlns:xlink="http://www.w3.org/1999/xlink" x="0px" y="0px"
	 width="274.667px" height="261.333px" viewBox="0 0 274.667 261.333" enable-background="new 0 0 274.667 261.333"
	 xml:space="preserve">
<polyline fill="none" stroke="#000000" stroke-miterlimit="10" points="116.525,77.849 53.091,28.959 63.192,103.707 "/>
<polyline fill="none" stroke="#000000" stroke-miterlimit="10" points="152.091,77.849 215.525,28.959 205.424,103.707 "/>
<ellipse fill="none" stroke="#000000" stroke-miterlimit="10" cx="134.606" cy="143.151" rx="88.081" ry="66.667"/>
<path fill="none" stroke="#000000" stroke-miterlimit="10" d="M197.333,148.5"/>
<path fill="none" stroke="#000000" stroke-miterlimit="10" d="M77.333,148.5"/>
<line fill="none" stroke="#000000" stroke-miterlimit="10" x1="122.586" y1="132.687" x2="137.741" y2="147.842"/>
<line fill="none" stroke="#000000" stroke-miterlimit="10" x1="137.741" y1="148.444" x2="155.189" y2="132.687"/>
<line fill="none" stroke="#000000" stroke-miterlimit="10" x1="122.333" y1="132.5" x2="155.333" y2="132.5"/>
<path fill="none" stroke="#000000" stroke-miterlimit="10" d="M138.344,147.444c0,12.953,19.517,23.435,43.636,23.435"/>
<path fill="none" stroke="#000000" stroke-miterlimit="10" d="M137.586,147.656c0,12.283-17.999,22.223-40.243,22.223"/>
<circle fill="none" stroke="#000000" stroke-miterlimit="10" cx="112.99" cy="109.959" r="14.646"/>
<ellipse fill="none" stroke="#000000" stroke-miterlimit="10" cx="120.692" cy="108.676" rx="6.641" ry="6.717"/>
<circle fill="none" stroke="#000000" stroke-miterlimit="10" cx="149.99" cy="109.959" r="14.646"/>
<ellipse fill="none" stroke="#000000" stroke-miterlimit="10" cx="157.692" cy="108.676" rx="6.642" ry="6.718"/>
<path fill="none" stroke="#000000" stroke-miterlimit="10" d="M127.267,162.33c5.514,5.614,14.601,5.614,20.316,0"/>
</svg>
