<?xml version="1.0" encoding="utf-8"?>
<!-- Generator: Adobe Illustrator 16.0.4, SVG Export Plug-In . SVG Version: 6.00 Build 0)  -->
<!DOCTYPE svg PUBLIC "-//W3C//DTD SVG 1.1//EN" "http://www.w3.org/Graphics/SVG/1.1/DTD/svg11.dtd">
<svg version="1.1" id="Layer_1" xmlns="http://www.w3.org/2000/svg" xmlns:xlink="http://www.w3.org/1999/xlink" x="0px" y="0px"
	 width="296px" height="274.667px" viewBox="0 0 296 274.667" enable-background="new 0 0 296 274.667" xml:space="preserve">
<polyline fill="none" stroke="#000000" stroke-miterlimit="10" points="158.529,149.003 215.041,205.755 214.781,130.331 "/>
<polyline fill="none" stroke="#000000" stroke-miterlimit="10" points="123.268,144.364 53.997,184.551 73.767,111.765 "/>
<path fill="none" stroke="#000000" stroke-miterlimit="10" d="M61.801,70.403c4.806-36.504,47.797-60.951,96.03-54.597
	c48.228,6.345,83.43,41.088,78.623,77.593c-4.809,36.502-47.801,60.947-96.027,54.598C92.193,141.649,56.992,106.908,61.801,70.403z
	"/>
<path fill="none" stroke="#000000" stroke-miterlimit="10" d="M87.635,68.409"/>
<path fill="none" stroke="#000000" stroke-miterlimit="10" d="M206.607,84.073"/>
<line fill="none" stroke="#000000" stroke-miterlimit="10" x1="160.283" y1="93.842" x2="146.887" y2="76.389"/>
<line fill="none" stroke="#000000" stroke-miterlimit="10" x1="146.709" y1="76.244" x2="127.355" y2="89.591"/>
<line fill="none" stroke="#000000" stroke-miterlimit="10" x1="159.904" y1="94.061" x2="127.185" y2="89.757"/>
<path fill="none" stroke="#000000" stroke-miterlimit="10" d="M145.98,77.158c1.692-12.844-16.291-25.779-40.203-28.933"/>
<path fill="none" stroke="#000000" stroke-miterlimit="10" d="M146.76,77.047c1.602-12.177,20.748-19.684,42.799-16.78"/>
<path fill="none" stroke="#000000" stroke-miterlimit="10" d="M151.703,115.72c1.058-8.021,8.412-13.663,16.433-12.61
	c8.023,1.058,13.666,8.413,12.613,16.435c-1.061,8.016-8.416,13.664-16.439,12.607C156.295,131.095,150.649,123.737,151.703,115.72z
	"/>
<path fill="none" stroke="#000000" stroke-miterlimit="10" d="M151.838,117.028c0.483-3.675,3.825-6.268,7.462-5.789
	c3.635,0.477,6.191,3.848,5.707,7.525c-0.482,3.677-3.826,6.271-7.465,5.791C153.907,124.077,151.353,120.707,151.838,117.028z"/>
<path fill="none" stroke="#000000" stroke-miterlimit="10" d="M115.02,110.889c1.056-8.021,8.416-13.663,16.436-12.606
	c8.019,1.053,13.667,8.409,12.606,16.431c-1.054,8.021-8.408,13.665-16.431,12.607C119.607,126.267,113.966,118.911,115.02,110.889z
	"/>
<path fill="none" stroke="#000000" stroke-miterlimit="10" d="M115.154,112.203c0.485-3.68,3.826-6.277,7.463-5.796
	c3.631,0.482,6.189,3.848,5.705,7.529c-0.482,3.676-3.826,6.268-7.458,5.792C117.227,119.251,114.673,115.877,115.154,112.203z"/>
<path fill="none" stroke="#000000" stroke-miterlimit="10" d="M158.906,63.843c-4.734-6.284-13.744-7.472-20.142-2.647"/>
</svg>
