<?xml version="1.0" encoding="utf-8"?>
<!-- Generator: Adobe Illustrator 16.0.4, SVG Export Plug-In . SVG Version: 6.00 Build 0)  -->
<!DOCTYPE svg PUBLIC "-//W3C//DTD SVG 1.1//EN" "http://www.w3.org/Graphics/SVG/1.1/DTD/svg11.dtd">
<svg version="1.1" id="Layer_1" xmlns="http://www.w3.org/2000/svg" xmlns:xlink="http://www.w3.org/1999/xlink" x="0px" y="0px"
	 width="296px" height="274.667px" viewBox="0 0 296 274.667" enable-background="new 0 0 296 274.667" xml:space="preserve">
<polyline fill="none" stroke="#000000" stroke-miterlimit="10" points="153.363,150.379 201.984,214.021 211.57,139.209 "/>
<polyline fill="none" stroke="#000000" stroke-miterlimit="10" points="119.009,141.178 45.085,171.979 74.186,102.396 "/>
<path fill="none" stroke="#000000" stroke-miterlimit="10" d="M67.722,59.826c9.529-35.563,55.344-54.19,102.334-41.595
	c46.988,12.586,77.354,51.626,67.822,87.191c-9.531,35.562-55.346,54.187-102.331,41.597
	C88.555,134.431,58.189,95.392,67.722,59.826z"/>
<path fill="none" stroke="#000000" stroke-miterlimit="10" d="M93.595,61.222"/>
<path fill="none" stroke="#000000" stroke-miterlimit="10" d="M209.505,92.28"/>
<line fill="none" stroke="#000000" stroke-miterlimit="10" x1="162.301" y1="95.919" x2="151.299" y2="76.866"/>
<line fill="none" stroke="#000000" stroke-miterlimit="10" x1="151.141" y1="76.7" x2="130.21" y2="87.406"/>
<line fill="none" stroke="#000000" stroke-miterlimit="10" x1="161.898" y1="96.087" x2="130.02" y2="87.549"/>
<path fill="none" stroke="#000000" stroke-miterlimit="10" d="M150.299,77.511c3.354-12.513-12.786-27.685-36.082-33.932"/>
<path fill="none" stroke="#000000" stroke-miterlimit="10" d="M151.086,77.503c3.177-11.864,23.14-16.808,44.624-11.051"/>
<path fill="none" stroke="#000000" stroke-miterlimit="10" d="M150.94,116.489c2.095-7.814,10.122-12.447,17.938-10.357
	c7.816,2.097,12.451,10.125,10.36,17.94c-2.099,7.81-10.128,12.449-17.944,10.354C153.486,132.333,148.849,124.302,150.94,116.489z"
	/>
<path fill="none" stroke="#000000" stroke-miterlimit="10" d="M150.902,117.805c0.959-3.58,4.611-5.715,8.155-4.766
	c3.541,0.947,5.636,4.623,4.676,8.206c-0.958,3.582-4.612,5.718-8.157,4.767C152.034,125.063,149.941,121.389,150.902,117.805z"/>
<path fill="none" stroke="#000000" stroke-miterlimit="10" d="M115.2,106.912c2.094-7.814,10.128-12.448,17.94-10.354
	c7.813,2.09,12.452,10.121,10.354,17.936c-2.092,7.814-10.12,12.45-17.936,10.354C117.742,122.757,113.109,114.728,115.2,106.912z"
	/>
<path fill="none" stroke="#000000" stroke-miterlimit="10" d="M115.162,108.232c0.961-3.585,4.612-5.724,8.155-4.772
	c3.538,0.953,5.634,4.623,4.674,8.21c-0.958,3.581-4.611,5.715-8.15,4.769C116.297,115.49,114.206,111.812,115.162,108.232z"/>
<path fill="none" stroke="#000000" stroke-miterlimit="10" d="M164.852,65.997c-3.874-6.849-12.651-9.202-19.625-5.254"/>
</svg>
