<?xml version="1.0" encoding="utf-8"?>
<!-- Generator: Adobe Illustrator 16.0.4, SVG Export Plug-In . SVG Version: 6.00 Build 0)  -->
<!DOCTYPE svg PUBLIC "-//W3C//DTD SVG 1.1//EN" "http://www.w3.org/Graphics/SVG/1.1/DTD/svg11.dtd">
<svg version="1.1" id="Layer_1" xmlns="http://www.w3.org/2000/svg" xmlns:xlink="http://www.w3.org/1999/xlink" x="0px" y="0px"
	 width="296px" height="274.667px" viewBox="0 0 296 274.667" enable-background="new 0 0 296 274.667" xml:space="preserve">
<polyline fill="none" stroke="#000000" stroke-miterlimit="10" points="132.102,87.844 75.592,31.093 75.849,106.52 "/>
<polyline fill="none" stroke="#000000" stroke-miterlimit="10" points="167.364,92.486 236.636,52.295 216.865,125.084 "/>
<ellipse transform="matrix(0.9914 0.1305 -0.1305 0.9914 21.4348 -17.144)" fill="none" stroke="#000000" stroke-miterlimit="10" cx="141.504" cy="154.948" rx="88.081" ry="66.668"/>
<path fill="none" stroke="#000000" stroke-miterlimit="10" d="M202.997,168.438"/>
<path fill="none" stroke="#000000" stroke-miterlimit="10" d="M84.023,152.775"/>
<line fill="none" stroke="#000000" stroke-miterlimit="10" x1="130.953" y1="143.004" x2="144" y2="160.007"/>
<line fill="none" stroke="#000000" stroke-miterlimit="10" x1="143.921" y1="160.604" x2="163.277" y2="147.26"/>
<line fill="none" stroke="#000000" stroke-miterlimit="10" x1="130.727" y1="142.785" x2="163.445" y2="147.093"/>
<path fill="none" stroke="#000000" stroke-miterlimit="10" d="M144.65,159.691c-1.691,12.843,16.291,25.782,40.203,28.931"/>
<path fill="none" stroke="#000000" stroke-miterlimit="10" d="M143.871,159.803c-1.603,12.179-20.746,19.684-42.799,16.78"/>
<circle fill="none" stroke="#000000" stroke-miterlimit="10" cx="124.406" cy="119.218" r="14.647"/>
<ellipse transform="matrix(0.9914 0.1306 -0.1306 0.9914 16.6639 -16.2447)" fill="none" stroke="#000000" stroke-miterlimit="10" cx="132.209" cy="118.951" rx="6.641" ry="6.718"/>
<circle fill="none" stroke="#000000" stroke-miterlimit="10" cx="161.089" cy="124.048" r="14.646"/>
<ellipse transform="matrix(0.9914 0.1306 -0.1306 0.9914 17.6085 -20.9933)" fill="none" stroke="#000000" stroke-miterlimit="10" cx="168.893" cy="123.78" rx="6.641" ry="6.719"/>
<path fill="none" stroke="#000000" stroke-miterlimit="10" d="M131.725,173.004c4.733,6.286,13.743,7.473,20.143,2.652"/>
</svg>
