<?xml version="1.0" encoding="utf-8"?>
<!-- Generator: Adobe Illustrator 16.0.4, SVG Export Plug-In . SVG Version: 6.00 Build 0)  -->
<!DOCTYPE svg PUBLIC "-//W3C//DTD SVG 1.1//EN" "http://www.w3.org/Graphics/SVG/1.1/DTD/svg11.dtd">
<svg version="1.1" id="Layer_1" xmlns="http://www.w3.org/2000/svg" xmlns:xlink="http://www.w3.org/1999/xlink" x="0px" y="0px"
	 width="296px" height="274.667px" viewBox="0 0 296 274.667" enable-background="new 0 0 296 274.667" xml:space="preserve">
<polyline fill="none" stroke="#000000" stroke-miterlimit="10" points="165.328,88.418 186.22,11.103 121.028,49.039 "/>
<polyline fill="none" stroke="#000000" stroke-miterlimit="10" points="178.939,121.276 248.38,161.173 175.458,180.444 "/>
<ellipse transform="matrix(0.3827 0.9239 -0.9239 0.3827 189.2953 -23.0762)" fill="none" stroke="#000000" stroke-miterlimit="10" cx="111.916" cy="130.111" rx="88.081" ry="66.666"/>
<path fill="none" stroke="#000000" stroke-miterlimit="10" d="M130.977,190.111"/>
<path fill="none" stroke="#000000" stroke-miterlimit="10" d="M85.055,79.246"/>
<line fill="none" stroke="#000000" stroke-miterlimit="10" x1="116.68" y1="114.482" x2="108.261" y2="134.808"/>
<line fill="none" stroke="#000000" stroke-miterlimit="10" x1="108.226" y1="135.036" x2="129.461" y2="145.123"/>
<line fill="none" stroke="#000000" stroke-miterlimit="10" x1="117.059" y1="114.698" x2="129.689" y2="145.187"/>
<path fill="none" stroke="#000000" stroke-miterlimit="10" d="M109.38,135.21c-11.967,4.955-14.18,26.999-4.953,49.281"/>
<path fill="none" stroke="#000000" stroke-miterlimit="10" d="M108.894,134.591c-11.347,4.699-27.418-8.128-35.93-28.677"/>
<path fill="none" stroke="#000000" stroke-miterlimit="10" d="M139.915,110.971c-7.474,3.096-16.04-0.453-19.137-7.926
	c-3.095-7.475,0.454-16.041,7.927-19.139c7.472-3.093,16.04,0.454,19.135,7.929C150.936,99.308,147.386,107.877,139.915,110.971z"/>
<ellipse transform="matrix(0.3825 0.9239 -0.9239 0.3825 181.6326 -63.6561)" fill="none" stroke="#000000" stroke-miterlimit="10" cx="138.442" cy="104.064" rx="6.641" ry="6.717"/>
<path fill="none" stroke="#000000" stroke-miterlimit="10" d="M154.072,145.156c-7.473,3.096-16.038-0.455-19.135-7.93
	c-3.095-7.472,0.452-16.039,7.926-19.134c7.474-3.097,16.041,0.451,19.136,7.924C165.095,133.493,161.546,142.058,154.072,145.156z"
	/>
<path fill="none" stroke="#000000" stroke-miterlimit="10" d="M155.143,144.383c-3.427,1.422-7.347-0.174-8.749-3.563
	c-1.4-3.39,0.237-7.287,3.667-8.708c3.426-1.418,7.343,0.181,8.747,3.563C160.21,139.064,158.571,142.963,155.143,144.383z"/>
<path fill="none" stroke="#000000" stroke-miterlimit="10" d="M91.39,130.673c-3.076,7.24,0.399,15.637,7.776,18.767"/>
</svg>
