<?xml version="1.0" encoding="utf-8"?>
<!-- Generator: Adobe Illustrator 16.0.4, SVG Export Plug-In . SVG Version: 6.00 Build 0)  -->
<!DOCTYPE svg PUBLIC "-//W3C//DTD SVG 1.1//EN" "http://www.w3.org/Graphics/SVG/1.1/DTD/svg11.dtd">
<svg version="1.1" id="Layer_1" xmlns="http://www.w3.org/2000/svg" xmlns:xlink="http://www.w3.org/1999/xlink" x="0px" y="0px"
	 width="296px" height="274.667px" viewBox="0 0 296 274.667" enable-background="new 0 0 296 274.667" xml:space="preserve">
<polyline fill="none" stroke="#000000" stroke-miterlimit="10" points="111.895,105.202 31.806,105.035 85.323,158.178 "/>
<polyline fill="none" stroke="#000000" stroke-miterlimit="10" points="140.11,83.55 160.675,6.153 198.162,71.598 "/>
<path fill="none" stroke="#000000" stroke-miterlimit="10" d="M235.871,92.385c22.414,29.209,9.302,76.893-29.298,106.508
	c-38.59,29.615-88.048,29.942-110.463,0.733c-22.411-29.217-9.295-76.901,29.294-106.512
	C164.001,63.495,213.458,63.171,235.871,92.385z"/>
<path fill="none" stroke="#000000" stroke-miterlimit="10" d="M219.013,112.062"/>
<path fill="none" stroke="#000000" stroke-miterlimit="10" d="M123.81,185.111"/>
<line fill="none" stroke="#000000" stroke-miterlimit="10" x1="149.661" y1="145.449" x2="171.472" y2="148.318"/>
<line fill="none" stroke="#000000" stroke-miterlimit="10" x1="171.702" y1="148.293" x2="175.948" y2="125.17"/>
<line fill="none" stroke="#000000" stroke-miterlimit="10" x1="149.773" y1="145.023" x2="175.952" y2="124.931"/>
<path fill="none" stroke="#000000" stroke-miterlimit="10" d="M171.57,147.133c7.885,10.278,29.746,6.706,48.887-7.971"/>
<path fill="none" stroke="#000000" stroke-miterlimit="10" d="M171.098,147.759c7.479,9.745-0.753,28.595-18.399,42.133"/>
<path fill="none" stroke="#000000" stroke-miterlimit="10" d="M140.257,123.911c4.925,6.419,3.713,15.608-2.701,20.538
	c-6.423,4.922-15.615,3.713-20.543-2.704c-4.918-6.417-3.709-15.611,2.709-20.537C126.138,116.286,135.332,117.496,140.257,123.911z
	"/>
<path fill="none" stroke="#000000" stroke-miterlimit="10" d="M139.236,123.083c2.256,2.938,1.724,7.136-1.185,9.37
	c-2.906,2.233-7.099,1.651-9.354-1.288c-2.262-2.939-1.729-7.14,1.186-9.373C132.787,119.56,136.979,120.138,139.236,123.083z"/>
<path fill="none" stroke="#000000" stroke-miterlimit="10" d="M169.611,101.388c4.925,6.42,3.711,15.613-2.705,20.538
	c-6.417,4.923-15.61,3.715-20.534-2.706c-4.925-6.415-3.718-15.606,2.703-20.533C155.49,93.761,164.683,94.971,169.611,101.388z"/>
<path fill="none" stroke="#000000" stroke-miterlimit="10" d="M168.585,100.554c2.26,2.944,1.733,7.142-1.177,9.373
	c-2.912,2.229-7.097,1.659-9.36-1.287c-2.254-2.939-1.725-7.138,1.182-9.371C162.138,97.036,166.328,97.615,168.585,100.554z"/>
<path fill="none" stroke="#000000" stroke-miterlimit="10" d="M171.847,165.689c7.791,1.093,15.001-4.435,16.114-12.374"/>
</svg>
