<?xml version="1.0" encoding="utf-8"?>
<!-- Generator: Adobe Illustrator 16.0.4, SVG Export Plug-In . SVG Version: 6.00 Build 0)  -->
<!DOCTYPE svg PUBLIC "-//W3C//DTD SVG 1.1//EN" "http://www.w3.org/Graphics/SVG/1.1/DTD/svg11.dtd">
<svg version="1.1" id="Layer_1" xmlns="http://www.w3.org/2000/svg" xmlns:xlink="http://www.w3.org/1999/xlink" x="0px" y="0px"
	 width="296px" height="274.667px" viewBox="0 0 296 274.667" enable-background="new 0 0 296 274.667" xml:space="preserve">
<polyline fill="none" stroke="#000000" stroke-miterlimit="10" points="144.031,152.297 174.523,226.354 203.145,156.573 "/>
<polyline fill="none" stroke="#000000" stroke-miterlimit="10" points="113.229,134.518 33.852,145.136 79.971,85.456 "/>
<path fill="none" stroke="#000000" stroke-miterlimit="10" d="M84.745,42.664c18.409-31.885,67.483-38.021,109.612-13.691
	c42.131,24.319,61.356,69.888,42.945,101.774c-18.412,31.885-67.486,38.016-109.61,13.694
	C85.558,120.118,66.332,74.551,84.745,42.664z"/>
<path fill="none" stroke="#000000" stroke-miterlimit="10" d="M109.375,50.708"/>
<path fill="none" stroke="#000000" stroke-miterlimit="10" d="M213.296,110.709"/>
<line fill="none" stroke="#000000" stroke-miterlimit="10" x1="166.759" y1="102.005" x2="161.064" y2="80.755"/>
<line fill="none" stroke="#000000" stroke-miterlimit="10" x1="160.955" y1="80.553" x2="137.966" y2="85.478"/>
<line fill="none" stroke="#000000" stroke-miterlimit="10" x1="166.326" y1="102.063" x2="137.745" y2="85.565"/>
<path fill="none" stroke="#000000" stroke-miterlimit="10" d="M159.931,81.119c6.479-11.218-5.186-30.052-26.071-42.115"/>
<path fill="none" stroke="#000000" stroke-miterlimit="10" d="M160.693,81.314c6.141-10.637,26.702-10.246,45.965,0.875"/>
<path fill="none" stroke="#000000" stroke-miterlimit="10" d="M150.461,118.935c4.046-7.006,12.999-9.402,20.009-5.362
	c7.006,4.048,9.406,13.004,5.363,20.012c-4.048,6.999-13.005,9.403-20.012,5.356C148.82,134.896,146.42,125.94,150.461,118.935z"/>
<path fill="none" stroke="#000000" stroke-miterlimit="10" d="M150.085,120.195c1.853-3.209,5.933-4.326,9.11-2.492
	c3.176,1.831,4.246,5.925,2.393,9.137c-1.852,3.212-5.935,4.328-9.112,2.492C149.299,127.5,148.229,123.408,150.085,120.195z"/>
<path fill="none" stroke="#000000" stroke-miterlimit="10" d="M118.418,100.435c4.046-7.007,13.005-9.403,20.009-5.359
	c7.006,4.041,9.408,13,5.359,20.005c-4.042,7.007-12.997,9.407-20.004,5.359C116.773,116.397,114.375,107.442,118.418,100.435z"/>
<path fill="none" stroke="#000000" stroke-miterlimit="10" d="M118.04,101.699c1.857-3.214,5.937-4.335,9.113-2.499
	c3.17,1.836,4.246,5.923,2.389,9.141c-1.852,3.21-5.933,4.325-9.106,2.496C117.258,109.003,116.189,104.91,118.04,101.699z"/>
<path fill="none" stroke="#000000" stroke-miterlimit="10" d="M176.968,73.763c-1.97-7.616-9.838-12.162-17.597-10.154"/>
</svg>
