<?xml version="1.0" encoding="utf-8"?>
<!-- Generator: Adobe Illustrator 16.0.4, SVG Export Plug-In . SVG Version: 6.00 Build 0)  -->
<!DOCTYPE svg PUBLIC "-//W3C//DTD SVG 1.1//EN" "http://www.w3.org/Graphics/SVG/1.1/DTD/svg11.dtd">
<svg version="1.1" id="Layer_1" xmlns="http://www.w3.org/2000/svg" xmlns:xlink="http://www.w3.org/1999/xlink" x="0px" y="0px"
	 width="296px" height="274.667px" viewBox="0 0 296 274.667" enable-background="new 0 0 296 274.667" xml:space="preserve">
<polyline fill="none" stroke="#000000" stroke-miterlimit="10" points="116.741,137.213 67.853,200.65 142.594,190.543 "/>
<polyline fill="none" stroke="#000000" stroke-miterlimit="10" points="116.739,101.648 67.854,38.215 142.597,48.316 "/>
<path fill="none" stroke="#000000" stroke-miterlimit="10" d="M182.043,31.054c36.818-0.002,66.667,39.429,66.663,88.08
	c0.004,48.645-29.846,88.081-66.665,88.081c-36.821-0.004-66.668-39.438-66.667-88.079C115.373,70.485,145.222,31.05,182.043,31.054
	z"/>
<path fill="none" stroke="#000000" stroke-miterlimit="10" d="M187.392,56.407"/>
<path fill="none" stroke="#000000" stroke-miterlimit="10" d="M187.39,176.404"/>
<line fill="none" stroke="#000000" stroke-miterlimit="10" x1="171.661" y1="131.75" x2="187.214" y2="116.195"/>
<line fill="none" stroke="#000000" stroke-miterlimit="10" x1="187.335" y1="115.997" x2="171.577" y2="98.55"/>
<line fill="none" stroke="#000000" stroke-miterlimit="10" x1="171.392" y1="131.405" x2="171.388" y2="98.404"/>
<path fill="none" stroke="#000000" stroke-miterlimit="10" d="M186.334,115.395c12.954,0.001,23.43-19.519,23.438-43.638"/>
<path fill="none" stroke="#000000" stroke-miterlimit="10" d="M186.544,116.15c12.283-0.001,22.226,18.004,22.226,40.247"/>
<path fill="none" stroke="#000000" stroke-miterlimit="10" d="M148.85,126.101c8.09,0.001,14.642,6.555,14.65,14.645
	c-0.006,8.092-6.562,14.648-14.651,14.652c-8.085-0.006-14.645-6.562-14.645-14.652C134.205,132.66,140.762,126.103,148.85,126.101z
	"/>
<path fill="none" stroke="#000000" stroke-miterlimit="10" d="M147.569,126.406c3.705,0,6.712,2.976,6.713,6.643
	c0.004,3.666-3.01,6.639-6.716,6.639c-3.708,0.004-6.716-2.975-6.713-6.646C140.85,129.378,143.86,126.404,147.569,126.406z"/>
<path fill="none" stroke="#000000" stroke-miterlimit="10" d="M148.849,89.101c8.092,0.001,14.645,6.562,14.646,14.648
	c0.002,8.088-6.554,14.646-14.646,14.644c-8.088,0.003-14.645-6.551-14.645-14.644C134.203,95.66,140.759,89.103,148.849,89.101z"/>
<path fill="none" stroke="#000000" stroke-miterlimit="10" d="M147.564,89.406c3.712,0,6.722,2.975,6.721,6.641
	c-0.005,3.666-3.005,6.64-6.721,6.642c-3.705,0-6.713-2.978-6.715-6.64C140.849,92.38,143.858,89.409,147.564,89.406z"/>
<path fill="none" stroke="#000000" stroke-miterlimit="10" d="M201.223,126.471c5.61-5.514,5.614-14.601-0.005-20.317"/>
</svg>
