<?xml version="1.0" encoding="utf-8"?>
<!-- Generator: Adobe Illustrator 16.0.4, SVG Export Plug-In . SVG Version: 6.00 Build 0)  -->
<!DOCTYPE svg PUBLIC "-//W3C//DTD SVG 1.1//EN" "http://www.w3.org/Graphics/SVG/1.1/DTD/svg11.dtd">
<svg version="1.1" id="Layer_1" xmlns="http://www.w3.org/2000/svg" xmlns:xlink="http://www.w3.org/1999/xlink" x="0px" y="0px"
	 width="296px" height="274.667px" viewBox="0 0 296 274.667" enable-background="new 0 0 296 274.667" xml:space="preserve">
<polyline fill="none" stroke="#000000" stroke-miterlimit="10" points="113.36,126.469 49.719,175.092 124.529,184.674 "/>
<polyline fill="none" stroke="#000000" stroke-miterlimit="10" points="122.563,92.116 91.762,18.193 161.343,47.293 "/>
<path fill="none" stroke="#000000" stroke-miterlimit="10" d="M203.914,40.83c35.564,9.527,54.189,55.34,41.596,102.333
	c-12.588,46.988-51.627,77.355-87.191,67.826c-35.565-9.535-54.189-55.35-41.598-102.333
	C129.31,61.662,168.349,31.296,203.914,40.83z"/>
<path fill="none" stroke="#000000" stroke-miterlimit="10" d="M202.519,66.703"/>
<path fill="none" stroke="#000000" stroke-miterlimit="10" d="M171.458,182.611"/>
<line fill="none" stroke="#000000" stroke-miterlimit="10" x1="167.824" y1="135.408" x2="186.873" y2="124.408"/>
<line fill="none" stroke="#000000" stroke-miterlimit="10" x1="187.041" y1="124.248" x2="176.333" y2="103.318"/>
<line fill="none" stroke="#000000" stroke-miterlimit="10" x1="167.654" y1="135.004" x2="176.19" y2="103.127"/>
<path fill="none" stroke="#000000" stroke-miterlimit="10" d="M186.23,123.408c12.512,3.354,27.682-12.79,33.933-36.084"/>
<path fill="none" stroke="#000000" stroke-miterlimit="10" d="M186.238,124.191c11.863,3.179,16.809,23.143,11.051,44.627"/>
<path fill="none" stroke="#000000" stroke-miterlimit="10" d="M147.251,124.046c7.814,2.095,12.447,10.122,10.359,17.938
	c-2.1,7.814-10.129,12.451-17.943,10.361c-7.808-2.098-12.447-10.129-10.354-17.943
	C131.408,126.592,139.438,121.956,147.251,124.046z"/>
<path fill="none" stroke="#000000" stroke-miterlimit="10" d="M145.936,124.01c3.579,0.958,5.713,4.611,4.766,8.154
	c-0.945,3.543-4.626,5.633-8.206,4.674c-3.583-0.955-5.718-4.611-4.765-8.157C138.676,125.142,142.354,123.047,145.936,124.01z"/>
<path fill="none" stroke="#000000" stroke-miterlimit="10" d="M156.828,88.308c7.814,2.096,12.447,10.128,10.355,17.939
	c-2.092,7.812-10.122,12.451-17.937,10.354c-7.813-2.091-12.45-10.117-10.355-17.935C140.981,90.852,149.012,86.216,156.828,88.308z
	"/>
<path fill="none" stroke="#000000" stroke-miterlimit="10" d="M155.507,88.269c3.586,0.961,5.723,4.613,4.772,8.154
	c-0.954,3.54-4.622,5.636-8.21,4.676c-3.579-0.959-5.713-4.613-4.768-8.151C148.251,89.405,151.927,87.313,155.507,88.269z"/>
<path fill="none" stroke="#000000" stroke-miterlimit="10" d="M197.744,137.961c6.848-3.875,9.203-12.651,5.254-19.627"/>
</svg>
