<?xml version="1.0" encoding="utf-8"?>
<!-- Generator: Adobe Illustrator 16.0.4, SVG Export Plug-In . SVG Version: 6.00 Build 0)  -->
<!DOCTYPE svg PUBLIC "-//W3C//DTD SVG 1.1//EN" "http://www.w3.org/Graphics/SVG/1.1/DTD/svg11.dtd">
<svg version="1.1" id="Layer_1" xmlns="http://www.w3.org/2000/svg" xmlns:xlink="http://www.w3.org/1999/xlink" x="0px" y="0px"
	 width="296px" height="274.667px" viewBox="0 0 296 274.667" enable-background="new 0 0 296 274.667" xml:space="preserve">
<polyline fill="none" stroke="#000000" stroke-miterlimit="10" points="121.894,92.489 52.618,52.299 72.394,125.079 "/>
<polyline fill="none" stroke="#000000" stroke-miterlimit="10" points="157.155,87.844 213.664,31.1 213.404,106.519 "/>
<path fill="none" stroke="#000000" stroke-miterlimit="10" d="M235.668,143.375c4.808,36.504-30.391,71.242-78.626,77.59
	c-48.228,6.352-91.223-18.092-96.03-54.596c-4.801-36.507,30.4-71.245,78.625-77.595
	C187.873,82.421,230.867,106.871,235.668,143.375z"/>
<path fill="none" stroke="#000000" stroke-miterlimit="10" d="M211.232,151.988"/>
<path fill="none" stroke="#000000" stroke-miterlimit="10" d="M92.258,167.648"/>
<line fill="none" stroke="#000000" stroke-miterlimit="10" x1="134.478" y1="146.227" x2="151.931" y2="159.617"/>
<line fill="none" stroke="#000000" stroke-miterlimit="10" x1="152.142" y1="159.709" x2="167.38" y2="141.809"/>
<line fill="none" stroke="#000000" stroke-miterlimit="10" x1="134.787" y1="145.914" x2="167.504" y2="141.602"/>
<path fill="none" stroke="#000000" stroke-miterlimit="10" d="M152.608,158.639c1.69,12.844,22.408,20.68,46.321,17.541"/>
<path fill="none" stroke="#000000" stroke-miterlimit="10" d="M151.887,158.945c1.604,12.18-14.95,24.387-37.001,27.289"/>
<path fill="none" stroke="#000000" stroke-miterlimit="10" d="M137.102,122.872c1.056,8.022-4.588,15.373-12.608,16.435
	c-8.023,1.053-15.38-4.59-16.439-12.613c-1.05-8.016,4.595-15.374,12.615-16.43C128.687,109.208,136.043,114.854,137.102,122.872z"
	/>
<path fill="none" stroke="#000000" stroke-miterlimit="10" d="M136.631,121.645c0.485,3.673-2.074,7.041-5.711,7.522
	c-3.632,0.481-6.972-2.12-7.457-5.793c-0.488-3.677,2.073-7.048,5.714-7.524C132.807,115.369,136.15,117.964,136.631,121.645z"/>
<path fill="none" stroke="#000000" stroke-miterlimit="10" d="M173.785,118.042c1.055,8.022-4.594,15.377-12.611,16.434
	c-8.019,1.055-15.377-4.587-16.431-12.61c-1.057-8.019,4.584-15.375,12.608-16.431C165.369,104.376,172.726,110.022,173.785,118.042
	z"/>
<path fill="none" stroke="#000000" stroke-miterlimit="10" d="M173.314,116.807c0.484,3.682-2.07,7.053-5.707,7.53
	c-3.635,0.474-6.974-2.111-7.461-5.796c-0.482-3.672,2.074-7.043,5.71-7.524C169.488,110.538,172.828,113.134,173.314,116.807z"/>
<path fill="none" stroke="#000000" stroke-miterlimit="10" d="M143.571,174.848c6.2,4.842,15.21,3.66,20.142-2.658"/>
</svg>
