<?xml version="1.0" encoding="utf-8"?>
<!-- Generator: Adobe Illustrator 16.0.4, SVG Export Plug-In . SVG Version: 6.00 Build 0)  -->
<!DOCTYPE svg PUBLIC "-//W3C//DTD SVG 1.1//EN" "http://www.w3.org/Graphics/SVG/1.1/DTD/svg11.dtd">
<svg version="1.1" id="Layer_1" xmlns="http://www.w3.org/2000/svg" xmlns:xlink="http://www.w3.org/1999/xlink" x="0px" y="0px"
	 width="296px" height="274.667px" viewBox="0 0 296 274.667" enable-background="new 0 0 296 274.667" xml:space="preserve">
<polyline fill="none" stroke="#000000" stroke-miterlimit="10" points="111.195,108.935 31.77,119.223 91.765,164.926 "/>
<polyline fill="none" stroke="#000000" stroke-miterlimit="10" points="136.342,83.785 146.629,4.366 192.337,64.357 "/>
<path fill="none" stroke="#000000" stroke-miterlimit="10" d="M232.437,80.045c26.035,26.033,19.259,75.021-15.145,109.421
	c-34.395,34.398-83.387,41.179-109.423,15.146c-26.032-26.042-19.253-75.03,15.142-109.425
	C157.412,60.783,206.404,54.006,232.437,80.045z"/>
<path fill="none" stroke="#000000" stroke-miterlimit="10" d="M218.292,101.754"/>
<path fill="none" stroke="#000000" stroke-miterlimit="10" d="M133.438,186.605"/>
<line fill="none" stroke="#000000" stroke-miterlimit="10" x1="153.892" y1="143.908" x2="175.89" y2="143.906"/>
<line fill="none" stroke="#000000" stroke-miterlimit="10" x1="176.115" y1="143.851" x2="177.306" y2="120.371"/>
<line fill="none" stroke="#000000" stroke-miterlimit="10" x1="153.947" y1="143.472" x2="177.279" y2="120.134"/>
<path fill="none" stroke="#000000" stroke-miterlimit="10" d="M175.833,142.718c9.159,9.161,30.367,2.766,47.429-14.283"/>
<path fill="none" stroke="#000000" stroke-miterlimit="10" d="M175.447,143.4c8.688,8.685,2.986,28.447-12.742,44.174"/>
<path fill="none" stroke="#000000" stroke-miterlimit="10" d="M141.757,123.782c5.72,5.721,5.719,14.99,0.003,20.715
	c-5.726,5.718-14.998,5.719-20.72,0c-5.713-5.72-5.715-14.994,0.005-20.715C126.763,118.065,136.036,118.064,141.757,123.782z"/>
<path fill="none" stroke="#000000" stroke-miterlimit="10" d="M140.636,123.094c2.62,2.619,2.641,6.85,0.049,9.444
	c-2.589,2.594-6.822,2.564-9.442-0.056c-2.626-2.619-2.646-6.854-0.048-9.447C133.782,120.442,138.015,120.469,140.636,123.094z"/>
<path fill="none" stroke="#000000" stroke-miterlimit="10" d="M167.919,97.62c5.721,5.722,5.717,14.994-0.002,20.715
	c-5.719,5.719-14.991,5.721-20.71-0.002c-5.721-5.718-5.724-14.988,0-20.711C152.924,91.9,162.197,91.9,167.919,97.62z"/>
<path fill="none" stroke="#000000" stroke-miterlimit="10" d="M166.794,96.927c2.625,2.624,2.65,6.854,0.057,9.446
	c-2.597,2.59-6.82,2.571-9.448-0.055c-2.619-2.62-2.643-6.852-0.053-9.444C159.943,94.28,164.172,94.308,166.794,96.927z"/>
<path fill="none" stroke="#000000" stroke-miterlimit="10" d="M178.529,161.079c7.867,0.066,14.295-6.354,14.362-14.371"/>
</svg>
