<?xml version="1.0" encoding="utf-8"?>
<!-- Generator: Adobe Illustrator 16.0.4, SVG Export Plug-In . SVG Version: 6.00 Build 0)  -->
<!DOCTYPE svg PUBLIC "-//W3C//DTD SVG 1.1//EN" "http://www.w3.org/Graphics/SVG/1.1/DTD/svg11.dtd">
<svg version="1.1" id="Layer_1" xmlns="http://www.w3.org/2000/svg" xmlns:xlink="http://www.w3.org/1999/xlink" x="0px" y="0px"
	 width="296px" height="274.667px" viewBox="0 0 296 274.667" enable-background="new 0 0 296 274.667" xml:space="preserve">
<polyline fill="none" stroke="#000000" stroke-miterlimit="10" points="179.564,123.938 256.966,103.375 191.518,65.888 "/>
<polyline fill="none" stroke="#000000" stroke-miterlimit="10" points="157.916,152.156 158.082,232.241 104.933,178.727 "/>
<path fill="none" stroke="#000000" stroke-miterlimit="10" d="M63.13,168.409c-29.211-22.415-28.885-71.87,0.732-110.464
	C93.472,19.353,141.16,6.236,170.373,28.65c29.209,22.415,28.882,71.871-0.732,110.462C140.026,177.708,92.34,190.825,63.13,168.409
	z"/>
<path fill="none" stroke="#000000" stroke-miterlimit="10" d="M74.32,145.039"/>
<path fill="none" stroke="#000000" stroke-miterlimit="10" d="M147.372,49.836"/>
<line fill="none" stroke="#000000" stroke-miterlimit="10" x1="132.669" y1="94.841" x2="110.856" y2="97.714"/>
<line fill="none" stroke="#000000" stroke-miterlimit="10" x1="110.642" y1="97.797" x2="112.523" y2="121.229"/>
<line fill="none" stroke="#000000" stroke-miterlimit="10" x1="132.67" y1="95.277" x2="112.582" y2="121.46"/>
<path fill="none" stroke="#000000" stroke-miterlimit="10" d="M111.067,98.884c-10.275-7.886-30.47,1.219-45.155,20.352"/>
<path fill="none" stroke="#000000" stroke-miterlimit="10" d="M111.362,98.153c-9.744-7.477-6.672-27.81,6.869-45.455"/>
<path fill="none" stroke="#000000" stroke-miterlimit="10" d="M147.326,113.209c-6.418-4.926-7.626-14.117-2.704-20.537
	c4.926-6.419,14.119-7.629,20.538-2.705c6.414,4.926,7.627,14.119,2.701,20.539C162.937,116.921,153.742,118.13,147.326,113.209z"/>
<path fill="none" stroke="#000000" stroke-miterlimit="10" d="M148.526,113.748c-2.941-2.258-3.516-6.448-1.282-9.357
	c2.231-2.912,6.428-3.438,9.372-1.181c2.94,2.257,3.516,6.45,1.283,9.358C155.667,115.479,151.47,116.007,148.526,113.748z"/>
<path fill="none" stroke="#000000" stroke-miterlimit="10" d="M124.8,142.562c-6.418-4.924-7.625-14.118-2.7-20.536
	c4.922-6.417,14.116-7.63,20.533-2.703c6.418,4.923,7.629,14.117,2.705,20.535C140.412,146.276,131.22,147.485,124.8,142.562z"/>
<path fill="none" stroke="#000000" stroke-miterlimit="10" d="M126.006,143.102c-2.944-2.258-3.523-6.449-1.288-9.358
	c2.233-2.906,6.428-3.437,9.374-1.178c2.94,2.257,3.514,6.449,1.286,9.356C133.146,144.831,128.947,145.359,126.006,143.102z"/>
<path fill="none" stroke="#000000" stroke-miterlimit="10" d="M106.001,81.033c-7.809,0.958-13.342,8.166-12.364,16.12"/>
</svg>
