<?xml version="1.0" encoding="utf-8"?>
<!-- Generator: Adobe Illustrator 16.0.4, SVG Export Plug-In . SVG Version: 6.00 Build 0)  -->
<!DOCTYPE svg PUBLIC "-//W3C//DTD SVG 1.1//EN" "http://www.w3.org/Graphics/SVG/1.1/DTD/svg11.dtd">
<svg version="1.1" id="Layer_1" xmlns="http://www.w3.org/2000/svg" xmlns:xlink="http://www.w3.org/1999/xlink" x="0px" y="0px"
	 width="296px" height="274.667px" viewBox="0 0 296 274.667" enable-background="new 0 0 296 274.667" xml:space="preserve">
<polyline fill="none" stroke="#000000" stroke-miterlimit="10" points="150.833,84.177 130.268,6.773 92.778,72.224 "/>
<polyline fill="none" stroke="#000000" stroke-miterlimit="10" points="179.048,105.828 259.134,105.658 205.619,158.81 "/>
<ellipse transform="matrix(0.7934 0.6088 -0.6088 0.7934 115.4006 -45.9769)" fill="none" stroke="#000000" stroke-miterlimit="10" cx="125.422" cy="146.991" rx="88.081" ry="66.667"/>
<path fill="none" stroke="#000000" stroke-miterlimit="10" d="M171.93,189.422"/>
<path fill="none" stroke="#000000" stroke-miterlimit="10" d="M76.728,116.37"/>
<line fill="none" stroke="#000000" stroke-miterlimit="10" x1="122.257" y1="131.372" x2="125.055" y2="152.621"/>
<line fill="none" stroke="#000000" stroke-miterlimit="10" x1="124.688" y1="153.1" x2="148.122" y2="151.219"/>
<line fill="none" stroke="#000000" stroke-miterlimit="10" x1="122.17" y1="131.07" x2="148.352" y2="151.16"/>
<path fill="none" stroke="#000000" stroke-miterlimit="10" d="M125.775,152.673c-7.886,10.276,1.218,30.473,20.351,45.156"/>
<path fill="none" stroke="#000000" stroke-miterlimit="10" d="M125.045,152.381c-7.478,9.743-27.808,6.672-45.455-6.87"/>
<circle fill="none" stroke="#000000" stroke-miterlimit="10" cx="128.48" cy="107.499" r="14.647"/>
<ellipse transform="matrix(0.7932 0.6089 -0.6089 0.7932 95.6791 -59.4427)" fill="none" stroke="#000000" stroke-miterlimit="10" cx="135.371" cy="111.17" rx="6.641" ry="6.717"/>
<circle fill="none" stroke="#000000" stroke-miterlimit="10" cx="157.833" cy="130.024" r="14.646"/>
<path fill="none" stroke="#000000" stroke-miterlimit="10" d="M169.994,137.736c-2.257,2.944-6.449,3.521-9.357,1.289
	c-2.908-2.235-3.438-6.431-1.18-9.375c2.258-2.941,6.45-3.517,9.357-1.286C171.724,130.599,172.253,134.794,169.994,137.736z"/>
<path fill="none" stroke="#000000" stroke-miterlimit="10" d="M107.926,157.739c0.957,7.81,8.164,13.344,16.118,12.366"/>
</svg>
