<?xml version="1.0" encoding="utf-8"?>
<!-- Generator: Adobe Illustrator 16.0.4, SVG Export Plug-In . SVG Version: 6.00 Build 0)  -->
<!DOCTYPE svg PUBLIC "-//W3C//DTD SVG 1.1//EN" "http://www.w3.org/Graphics/SVG/1.1/DTD/svg11.dtd">
<svg version="1.1" id="Layer_1" xmlns="http://www.w3.org/2000/svg" xmlns:xlink="http://www.w3.org/1999/xlink" x="0px" y="0px"
	 width="296px" height="274.667px" viewBox="0 0 296 274.667" enable-background="new 0 0 296 274.667" xml:space="preserve">
<polyline fill="none" stroke="#000000" stroke-miterlimit="10" points="118.175,95.343 44.246,64.54 73.353,134.115 "/>
<polyline fill="none" stroke="#000000" stroke-miterlimit="10" points="152.529,86.136 201.147,22.501 210.734,97.309 "/>
<path fill="none" stroke="#000000" stroke-miterlimit="10" d="M237.619,130.944c9.53,35.563-20.832,74.6-67.826,87.188
	c-46.986,12.592-92.804-6.03-102.335-41.595c-9.525-35.568,20.841-74.604,67.824-87.194
	C182.275,76.75,228.092,95.378,237.619,130.944z"/>
<path fill="none" stroke="#000000" stroke-miterlimit="10" d="M214.515,142.673"/>
<path fill="none" stroke="#000000" stroke-miterlimit="10" d="M98.603,173.728"/>
<line fill="none" stroke="#000000" stroke-miterlimit="10" x1="137.665" y1="146.979" x2="156.717" y2="157.977"/>
<line fill="none" stroke="#000000" stroke-miterlimit="10" x1="156.938" y1="158.04" x2="169.71" y2="138.304"/>
<line fill="none" stroke="#000000" stroke-miterlimit="10" x1="137.931" y1="146.628" x2="169.806" y2="138.083"/>
<path fill="none" stroke="#000000" stroke-miterlimit="10" d="M157.261,156.919c3.352,12.513,24.915,17.578,48.215,11.344"/>
<path fill="none" stroke="#000000" stroke-miterlimit="10" d="M156.586,157.316c3.18,11.866-11.639,26.129-33.123,31.885"/>
<path fill="none" stroke="#000000" stroke-miterlimit="10" d="M137.219,123.481c2.094,7.815-2.542,15.84-10.355,17.94
	c-7.818,2.091-15.848-2.544-17.945-10.359c-2.088-7.811,2.548-15.843,10.362-17.937C127.092,111.033,135.123,115.67,137.219,123.481
	z"/>
<path fill="none" stroke="#000000" stroke-miterlimit="10" d="M136.592,122.326c0.96,3.578-1.138,7.252-4.681,8.203
	c-3.539,0.952-7.189-1.191-8.149-4.77c-0.964-3.582,1.135-7.258,4.683-8.206C131.981,116.603,135.634,118.74,136.592,122.326z"/>
<path fill="none" stroke="#000000" stroke-miterlimit="10" d="M172.958,113.905c2.093,7.815-2.548,15.845-10.358,17.939
	c-7.812,2.093-15.844-2.541-17.936-10.357c-2.095-7.812,2.538-15.842,10.355-17.936C162.83,101.454,170.861,106.091,172.958,113.905
	z"/>
<path fill="none" stroke="#000000" stroke-miterlimit="10" d="M172.33,112.742c0.961,3.586-1.133,7.262-4.676,8.21
	c-3.541,0.944-7.189-1.183-8.153-4.772c-0.958-3.577,1.138-7.253,4.679-8.205C167.718,107.025,171.368,109.164,172.33,112.742z"/>
<path fill="none" stroke="#000000" stroke-miterlimit="10" d="M150.417,174.168c6.779,3.99,15.558,1.644,19.622-5.264"/>
</svg>
