<?xml version="1.0" encoding="utf-8"?>
<!-- Generator: Adobe Illustrator 16.0.4, SVG Export Plug-In . SVG Version: 6.00 Build 0)  -->
<!DOCTYPE svg PUBLIC "-//W3C//DTD SVG 1.1//EN" "http://www.w3.org/Graphics/SVG/1.1/DTD/svg11.dtd">
<svg version="1.1" id="Layer_1" xmlns="http://www.w3.org/2000/svg" xmlns:xlink="http://www.w3.org/1999/xlink" x="0px" y="0px"
	 width="296px" height="274.667px" viewBox="0 0 296 274.667" enable-background="new 0 0 296 274.667" xml:space="preserve">
<polyline fill="none" stroke="#000000" stroke-miterlimit="10" points="114.736,131.637 57.986,188.15 133.407,187.885 "/>
<polyline fill="none" stroke="#000000" stroke-miterlimit="10" points="119.377,96.376 79.19,27.105 151.975,46.875 "/>
<path fill="none" stroke="#000000" stroke-miterlimit="10" d="M193.337,34.91c36.504,4.804,60.949,47.793,54.596,96.027
	c-6.346,48.229-41.087,83.433-77.592,78.627c-36.505-4.811-60.95-47.803-54.6-96.028C122.09,65.302,156.832,30.101,193.337,34.91z"
	/>
<path fill="none" stroke="#000000" stroke-miterlimit="10" d="M195.332,60.744"/>
<path fill="none" stroke="#000000" stroke-miterlimit="10" d="M179.666,179.715"/>
<line fill="none" stroke="#000000" stroke-miterlimit="10" x1="169.9" y1="133.39" x2="187.351" y2="119.997"/>
<line fill="none" stroke="#000000" stroke-miterlimit="10" x1="187.497" y1="119.816" x2="174.15" y2="100.463"/>
<line fill="none" stroke="#000000" stroke-miterlimit="10" x1="169.679" y1="133.012" x2="173.982" y2="100.293"/>
<path fill="none" stroke="#000000" stroke-miterlimit="10" d="M186.583,119.09c12.842,1.691,25.775-16.294,28.932-40.205"/>
<path fill="none" stroke="#000000" stroke-miterlimit="10" d="M186.693,119.865c12.178,1.603,19.686,20.752,16.781,42.804"/>
<path fill="none" stroke="#000000" stroke-miterlimit="10" d="M148.021,124.811c8.021,1.058,13.662,8.411,12.613,16.433
	c-1.062,8.021-8.418,13.667-16.438,12.614c-8.016-1.061-13.663-8.418-12.607-16.438
	C132.646,129.402,140.002,123.758,148.021,124.811z"/>
<path fill="none" stroke="#000000" stroke-miterlimit="10" d="M146.712,124.946c3.674,0.483,6.266,3.826,5.789,7.463
	c-0.474,3.635-3.851,6.188-7.525,5.704c-3.677-0.479-6.271-3.825-5.788-7.465C139.662,127.017,143.035,124.46,146.712,124.946z"/>
<path fill="none" stroke="#000000" stroke-miterlimit="10" d="M152.851,88.128c8.022,1.058,13.663,8.417,12.609,16.435
	c-1.054,8.019-8.41,13.666-16.432,12.606c-8.02-1.053-13.664-8.406-12.608-16.43C137.473,92.719,144.829,87.074,152.851,88.128z"/>
<path fill="none" stroke="#000000" stroke-miterlimit="10" d="M151.537,88.262c3.68,0.484,6.275,3.827,5.796,7.462
	c-0.483,3.634-3.846,6.19-7.53,5.707c-3.673-0.483-6.267-3.828-5.791-7.459C144.491,90.335,147.862,87.781,151.537,88.262z"/>
<path fill="none" stroke="#000000" stroke-miterlimit="10" d="M199.898,132.015c6.283-4.734,7.473-13.743,2.647-20.145"/>
</svg>
