<?xml version="1.0" encoding="utf-8"?>
<!-- Generator: Adobe Illustrator 16.0.4, SVG Export Plug-In . SVG Version: 6.00 Build 0)  -->
<!DOCTYPE svg PUBLIC "-//W3C//DTD SVG 1.1//EN" "http://www.w3.org/Graphics/SVG/1.1/DTD/svg11.dtd">
<svg version="1.1" id="Layer_1" xmlns="http://www.w3.org/2000/svg" xmlns:xlink="http://www.w3.org/1999/xlink" x="0px" y="0px"
	 width="296px" height="274.667px" viewBox="0 0 296 274.667" enable-background="new 0 0 296 274.667" xml:space="preserve">
<polyline fill="none" stroke="#000000" stroke-miterlimit="10" points="175.322,138.436 252.636,159.328 214.701,94.139 "/>
<polyline fill="none" stroke="#000000" stroke-miterlimit="10" points="142.464,152.049 102.566,221.486 83.295,148.566 "/>
<path fill="none" stroke="#000000" stroke-miterlimit="10" d="M52.252,118.73c-14.09-34.017,10.919-76.683,55.866-95.298
	c44.938-18.617,92.797-6.132,106.887,27.886c14.088,34.017-10.923,76.684-55.863,95.297
	C114.196,165.234,66.34,152.748,52.252,118.73z"/>
<path fill="none" stroke="#000000" stroke-miterlimit="10" d="M73.628,104.086"/>
<path fill="none" stroke="#000000" stroke-miterlimit="10" d="M184.494,58.165"/>
<line fill="none" stroke="#000000" stroke-miterlimit="10" x1="149.259" y1="89.788" x2="128.932" y2="81.371"/>
<line fill="none" stroke="#000000" stroke-miterlimit="10" x1="128.704" y1="81.334" x2="118.617" y2="102.57"/>
<line fill="none" stroke="#000000" stroke-miterlimit="10" x1="149.041" y1="90.166" x2="118.553" y2="102.798"/>
<path fill="none" stroke="#000000" stroke-miterlimit="10" d="M128.53,82.49c-4.956-11.968-26.998-14.18-49.282-4.954"/>
<path fill="none" stroke="#000000" stroke-miterlimit="10" d="M129.149,82.003c-4.701-11.346,8.127-27.42,28.676-35.932"/>
<path fill="none" stroke="#000000" stroke-miterlimit="10" d="M152.768,113.024c-3.095-7.476,0.454-16.038,7.927-19.138
	c7.476-3.095,16.041,0.453,19.139,7.927c3.091,7.473-0.455,16.041-7.932,19.138C164.431,124.044,155.864,120.494,152.768,113.024z"
	/>
<ellipse transform="matrix(-0.924 0.3825 -0.3825 -0.924 349.8752 153.5427)" fill="none" stroke="#000000" stroke-miterlimit="10" cx="159.675" cy="111.55" rx="6.642" ry="6.714"/>
<path fill="none" stroke="#000000" stroke-miterlimit="10" d="M118.583,127.182c-3.097-7.474,0.457-16.04,7.931-19.136
	c7.47-3.098,16.039,0.45,19.133,7.926c3.097,7.473-0.451,16.04-7.925,19.135C130.246,138.205,121.682,134.656,118.583,127.182z"/>
<path fill="none" stroke="#000000" stroke-miterlimit="10" d="M119.357,128.253c-1.42-3.43,0.174-7.35,3.564-8.751
	c3.387-1.399,7.285,0.238,8.707,3.667c1.419,3.426-0.181,7.342-3.564,8.746C124.676,133.32,120.777,131.675,119.357,128.253z"/>
<path fill="none" stroke="#000000" stroke-miterlimit="10" d="M133.067,64.497c-7.242-3.076-15.638,0.4-18.767,7.778"/>
</svg>
