<?xml version="1.0" encoding="utf-8"?>
<!-- Generator: Adobe Illustrator 16.0.4, SVG Export Plug-In . SVG Version: 6.00 Build 0)  -->
<!DOCTYPE svg PUBLIC "-//W3C//DTD SVG 1.1//EN" "http://www.w3.org/Graphics/SVG/1.1/DTD/svg11.dtd">
<svg version="1.1" id="Layer_1" xmlns="http://www.w3.org/2000/svg" xmlns:xlink="http://www.w3.org/1999/xlink" x="0px" y="0px"
	 width="296px" height="274.667px" viewBox="0 0 296 274.667" enable-background="new 0 0 296 274.667" xml:space="preserve">
<polyline fill="none" stroke="#000000" stroke-miterlimit="10" points="142.092,85.341 102.194,15.897 82.921,88.82 "/>
<polyline fill="none" stroke="#000000" stroke-miterlimit="10" points="174.95,98.951 252.264,78.06 214.328,143.251 "/>
<ellipse transform="matrix(0.9239 0.3827 -0.3827 0.9239 68.5794 -39.5895)" fill="none" stroke="#000000" stroke-miterlimit="10" cx="133.805" cy="152.592" rx="88.081" ry="66.666"/>
<path fill="none" stroke="#000000" stroke-miterlimit="10" d="M189.71,181.539"/>
<path fill="none" stroke="#000000" stroke-miterlimit="10" d="M78.844,135.617"/>
<line fill="none" stroke="#000000" stroke-miterlimit="10" x1="126.705" y1="138.324" x2="134.907" y2="158.125"/>
<line fill="none" stroke="#000000" stroke-miterlimit="10" x1="134.676" y1="158.682" x2="156.826" y2="150.8"/>
<line fill="none" stroke="#000000" stroke-miterlimit="10" x1="126.543" y1="138.055" x2="157.032" y2="150.684"/>
<path fill="none" stroke="#000000" stroke-miterlimit="10" d="M135.616,157.988c-4.957,11.967,9.064,29.119,31.346,38.351"/>
<path fill="none" stroke="#000000" stroke-miterlimit="10" d="M134.835,157.895c-4.701,11.348-25.134,13.643-45.684,5.13"/>
<circle fill="none" stroke="#000000" stroke-miterlimit="10" cx="126.537" cy="113.654" r="14.647"/>
<ellipse transform="matrix(0.9238 0.3828 -0.3828 0.9238 54.3917 -42.5554)" fill="none" stroke="#000000" stroke-miterlimit="10" cx="134.143" cy="115.416" rx="6.641" ry="6.717"/>
<circle fill="none" stroke="#000000" stroke-miterlimit="10" cx="160.72" cy="127.814" r="14.646"/>
<path fill="none" stroke="#000000" stroke-miterlimit="10" d="M174.462,132.116c-1.419,3.428-5.318,5.07-8.705,3.667
	c-3.389-1.406-4.985-5.322-3.566-8.75c1.42-3.426,5.32-5.066,8.707-3.664C174.287,124.773,175.882,128.689,174.462,132.116z"/>
<path fill="none" stroke="#000000" stroke-miterlimit="10" d="M119.687,167.502c2.945,7.296,11.34,10.775,18.77,7.773"/>
</svg>
