<?xml version="1.0" encoding="utf-8"?>
<!-- Generator: Adobe Illustrator 16.0.4, SVG Export Plug-In . SVG Version: 6.00 Build 0)  -->
<!DOCTYPE svg PUBLIC "-//W3C//DTD SVG 1.1//EN" "http://www.w3.org/Graphics/SVG/1.1/DTD/svg11.dtd">
<svg version="1.1" id="Layer_1" xmlns="http://www.w3.org/2000/svg" xmlns:xlink="http://www.w3.org/1999/xlink" x="0px" y="0px"
	 width="296px" height="274.667px" viewBox="0 0 296 274.667" enable-background="new 0 0 296 274.667" xml:space="preserve">
<polyline fill="none" stroke="#000000" stroke-miterlimit="10" points="179.439,127.911 258.864,117.626 198.869,71.917 "/>
<polyline fill="none" stroke="#000000" stroke-miterlimit="10" points="154.293,153.062 144.004,232.482 98.295,172.488 "/>
<path fill="none" stroke="#000000" stroke-miterlimit="10" d="M58.197,156.803C32.162,130.768,38.94,81.778,73.342,47.38
	c34.393-34.397,83.385-41.178,109.422-15.142c26.033,26.035,19.254,75.026-15.145,109.421
	C133.221,176.061,84.231,182.84,58.197,156.803z"/>
<path fill="none" stroke="#000000" stroke-miterlimit="10" d="M72.341,135.094"/>
<path fill="none" stroke="#000000" stroke-miterlimit="10" d="M157.195,50.241"/>
<line fill="none" stroke="#000000" stroke-miterlimit="10" x1="136.743" y1="92.941" x2="114.742" y2="92.943"/>
<line fill="none" stroke="#000000" stroke-miterlimit="10" x1="114.519" y1="92.997" x2="113.326" y2="116.475"/>
<line fill="none" stroke="#000000" stroke-miterlimit="10" x1="136.687" y1="93.374" x2="113.354" y2="116.711"/>
<path fill="none" stroke="#000000" stroke-miterlimit="10" d="M114.799,94.13c-9.158-9.16-30.369-2.769-47.426,14.283"/>
<path fill="none" stroke="#000000" stroke-miterlimit="10" d="M115.186,93.444c-8.685-8.684-2.985-28.442,12.744-44.169"/>
<path fill="none" stroke="#000000" stroke-miterlimit="10" d="M148.877,113.065c-5.72-5.721-5.718-14.991,0-20.714
	c5.722-5.721,14.993-5.721,20.715-0.001c5.716,5.721,5.719,14.994-0.003,20.716C163.871,118.784,154.596,118.782,148.877,113.065z"
	/>
<path fill="none" stroke="#000000" stroke-miterlimit="10" d="M149.997,113.756c-2.621-2.622-2.644-6.852-0.049-9.444
	c2.592-2.596,6.821-2.57,9.446,0.053c2.619,2.621,2.644,6.854,0.05,9.445C156.851,116.404,152.621,116.38,149.997,113.756z"/>
<path fill="none" stroke="#000000" stroke-miterlimit="10" d="M122.713,139.227c-5.721-5.719-5.716-14.993,0.004-20.712
	c5.718-5.72,14.991-5.723,20.71,0c5.721,5.719,5.721,14.992,0.001,20.712C137.706,144.947,128.436,144.947,122.713,139.227z"/>
<path fill="none" stroke="#000000" stroke-miterlimit="10" d="M123.838,139.92c-2.625-2.623-2.651-6.855-0.056-9.447
	c2.594-2.59,6.822-2.568,9.448,0.056c2.621,2.622,2.643,6.852,0.054,9.444C130.691,142.566,126.459,142.541,123.838,139.92z"/>
<path fill="none" stroke="#000000" stroke-miterlimit="10" d="M112.106,75.771c-7.867-0.069-14.294,6.354-14.362,14.368"/>
</svg>
