<?xml version="1.0" encoding="utf-8"?>
<!-- Generator: Adobe Illustrator 16.0.4, SVG Export Plug-In . SVG Version: 6.00 Build 0)  -->
<!DOCTYPE svg PUBLIC "-//W3C//DTD SVG 1.1//EN" "http://www.w3.org/Graphics/SVG/1.1/DTD/svg11.dtd">
<svg version="1.1" id="Layer_1" xmlns="http://www.w3.org/2000/svg" xmlns:xlink="http://www.w3.org/1999/xlink" x="0px" y="0px"
	 width="296px" height="274.667px" viewBox="0 0 296 274.667" enable-background="new 0 0 296 274.667" xml:space="preserve">
<polyline fill="none" stroke="#000000" stroke-miterlimit="10" points="132.096,151.848 131.928,231.938 185.074,178.42 "/>
<polyline fill="none" stroke="#000000" stroke-miterlimit="10" points="110.444,123.634 33.045,103.067 98.492,65.58 "/>
<path fill="none" stroke="#000000" stroke-miterlimit="10" d="M119.278,27.871c29.209-22.412,76.895-9.301,106.508,29.298
	c29.617,38.592,29.94,88.049,0.729,110.463c-29.213,22.411-76.897,9.296-106.507-29.294C90.389,99.742,90.064,50.285,119.278,27.871
	z"/>
<path fill="none" stroke="#000000" stroke-miterlimit="10" d="M138.956,44.729"/>
<path fill="none" stroke="#000000" stroke-miterlimit="10" d="M212.005,139.932"/>
<line fill="none" stroke="#000000" stroke-miterlimit="10" x1="172.341" y1="114.081" x2="175.21" y2="92.271"/>
<line fill="none" stroke="#000000" stroke-miterlimit="10" x1="175.188" y1="92.04" x2="152.064" y2="87.792"/>
<line fill="none" stroke="#000000" stroke-miterlimit="10" x1="171.919" y1="113.97" x2="151.827" y2="87.79"/>
<path fill="none" stroke="#000000" stroke-miterlimit="10" d="M174.025,92.172c10.278-7.884,6.709-29.748-7.969-48.887"/>
<path fill="none" stroke="#000000" stroke-miterlimit="10" d="M174.654,92.644c9.744-7.478,28.592,0.754,42.133,18.399"/>
<path fill="none" stroke="#000000" stroke-miterlimit="10" d="M150.805,123.485c6.419-4.924,15.608-3.712,20.538,2.702
	c4.924,6.422,3.713,15.615-2.703,20.541c-6.418,4.919-15.614,3.71-20.539-2.71C143.181,137.604,144.39,128.411,150.805,123.485z"/>
<path fill="none" stroke="#000000" stroke-miterlimit="10" d="M149.975,124.506c2.939-2.255,7.136-1.726,9.37,1.184
	c2.234,2.907,1.654,7.099-1.287,9.356c-2.939,2.261-7.139,1.728-9.372-1.185C146.454,130.955,147.031,126.764,149.975,124.506z"/>
<path fill="none" stroke="#000000" stroke-miterlimit="10" d="M128.28,94.131c6.419-4.925,15.614-3.71,20.538,2.706
	c4.926,6.414,3.717,15.609-2.705,20.533c-6.416,4.926-15.606,3.718-20.532-2.703C120.653,108.25,121.864,99.059,128.28,94.131z"/>
<path fill="none" stroke="#000000" stroke-miterlimit="10" d="M127.447,95.155c2.945-2.26,7.144-1.732,9.376,1.178
	c2.226,2.91,1.656,7.097-1.291,9.359c-2.938,2.257-7.136,1.726-9.368-1.179C123.93,101.604,124.508,97.414,127.447,95.155z"/>
<path fill="none" stroke="#000000" stroke-miterlimit="10" d="M192.582,91.896c1.094-7.79-4.435-15.002-12.372-16.116"/>
</svg>
