<?xml version="1.0" encoding="utf-8"?>
<!-- Generator: Adobe Illustrator 16.0.4, SVG Export Plug-In . SVG Version: 6.00 Build 0)  -->
<!DOCTYPE svg PUBLIC "-//W3C//DTD SVG 1.1//EN" "http://www.w3.org/Graphics/SVG/1.1/DTD/svg11.dtd">
<svg version="1.1" id="Layer_1" xmlns="http://www.w3.org/2000/svg" xmlns:xlink="http://www.w3.org/1999/xlink" x="0px" y="0px"
	 width="296px" height="274.667px" viewBox="0 0 296 274.667" enable-background="new 0 0 296 274.667" xml:space="preserve">
<polyline fill="none" stroke="#000000" stroke-miterlimit="10" points="111.07,112.907 33.667,133.475 99.115,170.955 "/>
<polyline fill="none" stroke="#000000" stroke-miterlimit="10" points="132.72,84.69 132.552,4.608 185.7,58.121 "/>
<path fill="none" stroke="#000000" stroke-miterlimit="10" d="M227.503,68.439c29.211,22.412,28.887,71.866-0.731,110.461
	c-29.611,38.594-77.299,51.711-106.511,29.299c-29.208-22.422-28.882-71.875,0.729-110.465
	C150.606,59.135,198.294,46.021,227.503,68.439z"/>
<path fill="none" stroke="#000000" stroke-miterlimit="10" d="M216.314,91.809"/>
<path fill="none" stroke="#000000" stroke-miterlimit="10" d="M143.261,187.01"/>
<line fill="none" stroke="#000000" stroke-miterlimit="10" x1="157.966" y1="142.008" x2="179.776" y2="139.135"/>
<line fill="none" stroke="#000000" stroke-miterlimit="10" x1="179.992" y1="139.051" x2="178.109" y2="115.617"/>
<line fill="none" stroke="#000000" stroke-miterlimit="10" x1="157.964" y1="141.568" x2="178.05" y2="115.385"/>
<path fill="none" stroke="#000000" stroke-miterlimit="10" d="M179.565,137.965c10.276,7.887,30.468-1.223,45.158-20.352"/>
<path fill="none" stroke="#000000" stroke-miterlimit="10" d="M179.271,138.691c9.746,7.477,6.674,27.814-6.867,45.459"/>
<path fill="none" stroke="#000000" stroke-miterlimit="10" d="M143.309,123.638c6.418,4.926,7.626,14.116,2.707,20.538
	c-4.931,6.416-14.124,7.627-20.543,2.705c-6.412-4.926-7.624-14.121-2.699-20.539C127.697,119.927,136.891,118.716,143.309,123.638z
	"/>
<path fill="none" stroke="#000000" stroke-miterlimit="10" d="M142.108,123.102c2.939,2.255,3.513,6.446,1.281,9.357
	c-2.229,2.91-6.43,3.434-9.369,1.178c-2.945-2.254-3.518-6.45-1.281-9.36C134.966,121.369,139.166,120.841,142.108,123.102z"/>
<path fill="none" stroke="#000000" stroke-miterlimit="10" d="M165.833,94.285c6.418,4.927,7.625,14.12,2.702,20.538
	c-4.924,6.417-14.116,7.629-20.534,2.701c-6.418-4.922-7.63-14.112-2.704-20.533C150.219,90.572,159.412,89.362,165.833,94.285z"/>
<path fill="none" stroke="#000000" stroke-miterlimit="10" d="M164.627,93.745c2.944,2.259,3.522,6.45,1.288,9.358
	c-2.236,2.906-6.426,3.439-9.374,1.179c-2.938-2.256-3.514-6.448-1.285-9.356C157.489,92.015,161.685,91.49,164.627,93.745z"/>
<path fill="none" stroke="#000000" stroke-miterlimit="10" d="M184.634,155.816c7.809-0.961,13.343-8.166,12.363-16.123"/>
</svg>
