<?xml version="1.0" encoding="utf-8"?>
<!-- Generator: Adobe Illustrator 16.0.4, SVG Export Plug-In . SVG Version: 6.00 Build 0)  -->
<!DOCTYPE svg PUBLIC "-//W3C//DTD SVG 1.1//EN" "http://www.w3.org/Graphics/SVG/1.1/DTD/svg11.dtd">
<svg version="1.1" id="Layer_1" xmlns="http://www.w3.org/2000/svg" xmlns:xlink="http://www.w3.org/1999/xlink" x="0px" y="0px"
	 width="296px" height="274.667px" viewBox="0 0 296 274.667" enable-background="new 0 0 296 274.667" xml:space="preserve">
<polyline fill="none" stroke="#000000" stroke-miterlimit="10" points="164.106,146.999 227.541,195.889 217.439,121.145 "/>
<polyline fill="none" stroke="#000000" stroke-miterlimit="10" points="128.541,147.002 65.107,195.887 75.208,121.143 "/>
<path fill="none" stroke="#000000" stroke-miterlimit="10" d="M57.946,81.697c0-36.819,39.433-66.668,88.082-66.664
	c48.644-0.004,88.079,29.847,88.079,66.666c-0.003,36.818-39.437,66.666-88.079,66.665C97.377,148.367,57.943,118.518,57.946,81.697
	z"/>
<path fill="none" stroke="#000000" stroke-miterlimit="10" d="M83.298,76.349"/>
<path fill="none" stroke="#000000" stroke-miterlimit="10" d="M203.297,76.349"/>
<line fill="none" stroke="#000000" stroke-miterlimit="10" x1="158.644" y1="92.081" x2="143.085" y2="76.525"/>
<line fill="none" stroke="#000000" stroke-miterlimit="10" x1="142.889" y1="76.405" x2="125.443" y2="92.164"/>
<line fill="none" stroke="#000000" stroke-miterlimit="10" x1="158.297" y1="92.347" x2="125.296" y2="92.351"/>
<path fill="none" stroke="#000000" stroke-miterlimit="10" d="M142.286,77.406c0.001-12.954-19.516-23.432-43.635-23.437"/>
<path fill="none" stroke="#000000" stroke-miterlimit="10" d="M143.044,77.194c-0.001-12.281,18.001-22.224,40.243-22.223"/>
<path fill="none" stroke="#000000" stroke-miterlimit="10" d="M152.994,114.892c0.001-8.092,6.557-14.645,14.646-14.647
	c8.092,0.001,14.647,6.557,14.65,14.647c-0.006,8.086-6.561,14.646-14.652,14.646C159.553,129.535,152.995,122.978,152.994,114.892z
	"/>
<path fill="none" stroke="#000000" stroke-miterlimit="10" d="M153.297,116.171c0-3.706,2.975-6.713,6.644-6.713
	c3.666-0.002,6.641,3.006,6.64,6.716c0.002,3.708-2.975,6.716-6.645,6.716C156.27,122.89,153.296,119.882,153.297,116.171z"/>
<path fill="none" stroke="#000000" stroke-miterlimit="10" d="M115.993,114.89c0-8.09,6.561-14.645,14.649-14.644
	c8.087-0.003,14.647,6.553,14.643,14.645c0.002,8.089-6.553,14.646-14.645,14.645C122.549,129.537,115.996,122.981,115.993,114.89z"
	/>
<path fill="none" stroke="#000000" stroke-miterlimit="10" d="M116.298,116.176c0-3.712,2.973-6.724,6.642-6.721
	c3.664,0.004,6.639,3.007,6.64,6.72c0.001,3.708-2.975,6.714-6.639,6.716C119.273,122.893,116.301,119.881,116.298,116.176z"/>
<path fill="none" stroke="#000000" stroke-miterlimit="10" d="M153.363,62.519c-5.514-5.613-14.601-5.614-20.315,0.004"/>
</svg>
