<?xml version="1.0" encoding="utf-8"?>
<!-- Generator: Adobe Illustrator 16.0.4, SVG Export Plug-In . SVG Version: 6.00 Build 0)  -->
<!DOCTYPE svg PUBLIC "-//W3C//DTD SVG 1.1//EN" "http://www.w3.org/Graphics/SVG/1.1/DTD/svg11.dtd">
<svg version="1.1" id="Layer_1" xmlns="http://www.w3.org/2000/svg" xmlns:xlink="http://www.w3.org/1999/xlink" x="0px" y="0px"
	 width="296px" height="274.667px" viewBox="0 0 296 274.667" enable-background="new 0 0 296 274.667" xml:space="preserve">
<polyline fill="none" stroke="#000000" stroke-miterlimit="10" points="135.829,152.547 146.116,231.973 191.822,171.977 "/>
<polyline fill="none" stroke="#000000" stroke-miterlimit="10" points="110.679,127.4 31.258,117.113 91.252,71.403 "/>
<path fill="none" stroke="#000000" stroke-miterlimit="10" d="M106.938,31.304c26.034-26.033,75.024-19.259,109.421,15.145
	c34.401,34.396,41.177,83.388,15.14,109.422c-26.037,26.033-75.025,19.254-109.419-15.141
	C87.678,106.331,80.9,57.339,106.938,31.304z"/>
<path fill="none" stroke="#000000" stroke-miterlimit="10" d="M128.647,45.449"/>
<path fill="none" stroke="#000000" stroke-miterlimit="10" d="M213.5,130.302"/>
<line fill="none" stroke="#000000" stroke-miterlimit="10" x1="170.8" y1="109.85" x2="170.798" y2="87.851"/>
<line fill="none" stroke="#000000" stroke-miterlimit="10" x1="170.746" y1="87.626" x2="147.265" y2="86.433"/>
<line fill="none" stroke="#000000" stroke-miterlimit="10" x1="170.367" y1="109.794" x2="147.029" y2="86.461"/>
<path fill="none" stroke="#000000" stroke-miterlimit="10" d="M169.61,87.909c9.161-9.158,2.769-30.369-14.282-47.428"/>
<path fill="none" stroke="#000000" stroke-miterlimit="10" d="M170.294,88.294c8.686-8.686,28.445-2.984,44.174,12.742"/>
<path fill="none" stroke="#000000" stroke-miterlimit="10" d="M150.676,121.985c5.722-5.72,14.99-5.718,20.715-0.001
	c5.72,5.724,5.72,14.997,0.001,20.717c-5.721,5.715-14.996,5.717-20.717-0.006C144.959,136.979,144.958,127.707,150.676,121.985z"/>
<path fill="none" stroke="#000000" stroke-miterlimit="10" d="M149.986,123.105c2.62-2.619,6.85-2.643,9.445-0.05
	c2.594,2.592,2.566,6.822-0.055,9.445c-2.62,2.625-6.853,2.645-9.447,0.049C147.337,129.958,147.362,125.728,149.986,123.105z"/>
<path fill="none" stroke="#000000" stroke-miterlimit="10" d="M124.512,95.822c5.722-5.721,14.996-5.717,20.715,0.002
	c5.721,5.717,5.722,14.991-0.002,20.711c-5.718,5.721-14.988,5.723-20.709,0C118.793,110.816,118.794,101.544,124.512,95.822z"/>
<path fill="none" stroke="#000000" stroke-miterlimit="10" d="M123.819,96.946c2.625-2.624,6.857-2.65,9.449-0.056
	c2.587,2.595,2.569,6.819-0.058,9.447c-2.619,2.621-6.85,2.643-9.442,0.055C121.174,103.798,121.201,99.569,123.819,96.946z"/>
<path fill="none" stroke="#000000" stroke-miterlimit="10" d="M187.971,85.213c0.068-7.866-6.354-14.295-14.369-14.363"/>
</svg>
