<?xml version="1.0" encoding="utf-8"?>
<!-- Generator: Adobe Illustrator 16.0.4, SVG Export Plug-In . SVG Version: 6.00 Build 0)  -->
<!DOCTYPE svg PUBLIC "-//W3C//DTD SVG 1.1//EN" "http://www.w3.org/Graphics/SVG/1.1/DTD/svg11.dtd">
<svg version="1.1" id="Layer_1" xmlns="http://www.w3.org/2000/svg" xmlns:xlink="http://www.w3.org/1999/xlink" x="0px" y="0px"
	 width="296px" height="274.667px" viewBox="0 0 296 274.667" enable-background="new 0 0 296 274.667" xml:space="preserve">
<polyline fill="none" stroke="#000000" stroke-miterlimit="10" points="171.25,94.998 211.443,25.725 138.653,45.496 "/>
<polyline fill="none" stroke="#000000" stroke-miterlimit="10" points="175.894,130.26 232.643,186.77 157.219,186.512 "/>
<path fill="none" stroke="#000000" stroke-miterlimit="10" d="M120.364,208.774C83.86,213.58,49.12,178.38,42.772,130.147
	c-6.351-48.227,18.095-91.222,54.599-96.028c36.503-4.805,71.244,30.398,77.591,78.626
	C181.314,160.976,156.87,203.97,120.364,208.774z"/>
<path fill="none" stroke="#000000" stroke-miterlimit="10" d="M111.75,184.336"/>
<path fill="none" stroke="#000000" stroke-miterlimit="10" d="M96.087,65.362"/>
<line fill="none" stroke="#000000" stroke-miterlimit="10" x1="117.515" y1="107.583" x2="104.123" y2="125.037"/>
<line fill="none" stroke="#000000" stroke-miterlimit="10" x1="104.028" y1="125.248" x2="121.93" y2="140.488"/>
<line fill="none" stroke="#000000" stroke-miterlimit="10" x1="117.825" y1="107.89" x2="122.134" y2="140.608"/>
<path fill="none" stroke="#000000" stroke-miterlimit="10" d="M105.099,125.716c-12.841,1.688-20.684,22.408-17.539,46.32"/>
<path fill="none" stroke="#000000" stroke-miterlimit="10" d="M104.79,124.992c-12.177,1.602-24.381-14.948-27.284-37"/>
<circle fill="none" stroke="#000000" stroke-miterlimit="10" cx="138.955" cy="95.683" r="14.647"/>
<ellipse transform="matrix(0.1303 0.9915 -0.9915 0.1303 225.0949 -50.3204)" fill="none" stroke="#000000" stroke-miterlimit="10" cx="141.232" cy="103.152" rx="6.642" ry="6.716"/>
<path fill="none" stroke="#000000" stroke-miterlimit="10" d="M145.694,146.89c-8.02,1.056-15.374-4.592-16.43-12.612
	c-1.056-8.018,4.587-15.375,12.608-16.43c8.02-1.058,15.376,4.587,16.432,12.607C159.36,138.478,153.715,145.831,145.694,146.89z"/>
<path fill="none" stroke="#000000" stroke-miterlimit="10" d="M146.929,146.42c-3.678,0.486-7.052-2.069-7.528-5.706
	c-0.476-3.636,2.115-6.977,5.795-7.464c3.677-0.481,7.046,2.076,7.527,5.707C153.2,142.594,150.606,145.937,146.929,146.42z"/>
<path fill="none" stroke="#000000" stroke-miterlimit="10" d="M88.896,116.677c-4.845,6.197-3.661,15.206,2.654,20.14"/>
</svg>
