<?xml version="1.0" encoding="utf-8"?>
<!-- Generator: Adobe Illustrator 16.0.4, SVG Export Plug-In . SVG Version: 6.00 Build 0)  -->
<!DOCTYPE svg PUBLIC "-//W3C//DTD SVG 1.1//EN" "http://www.w3.org/Graphics/SVG/1.1/DTD/svg11.dtd">
<svg version="1.1" id="Layer_1" xmlns="http://www.w3.org/2000/svg" xmlns:xlink="http://www.w3.org/1999/xlink" x="0px" y="0px"
	 width="296px" height="274.667px" viewBox="0 0 296 274.667" enable-background="new 0 0 296 274.667" xml:space="preserve">
<polyline fill="none" stroke="#000000" stroke-miterlimit="10" points="137.269,86.467 88.649,22.826 79.06,97.64 "/>
<polyline fill="none" stroke="#000000" stroke-miterlimit="10" points="171.623,95.672 245.548,64.868 216.446,134.453 "/>
<ellipse transform="matrix(0.9659 0.2588 -0.2588 0.9659 44.6128 -30.4185)" fill="none" stroke="#000000" stroke-miterlimit="10" cx="137.832" cy="154.224" rx="88.081" ry="66.666"/>
<path fill="none" stroke="#000000" stroke-miterlimit="10" d="M197.037,175.627"/>
<path fill="none" stroke="#000000" stroke-miterlimit="10" d="M81.125,144.568"/>
<line fill="none" stroke="#000000" stroke-miterlimit="10" x1="128.93" y1="141.006" x2="139.646" y2="159.566"/>
<line fill="none" stroke="#000000" stroke-miterlimit="10" x1="139.49" y1="160.148" x2="160.421" y2="149.443"/>
<line fill="none" stroke="#000000" stroke-miterlimit="10" x1="128.734" y1="140.76" x2="160.611" y2="149.301"/>
<path fill="none" stroke="#000000" stroke-miterlimit="10" d="M140.331,159.338c-3.353,12.512,12.787,27.688,36.083,33.932"/>
<path fill="none" stroke="#000000" stroke-miterlimit="10" d="M139.545,159.348c-3.179,11.863-23.138,16.807-44.624,11.049"/>
<circle fill="none" stroke="#000000" stroke-miterlimit="10" cx="125.543" cy="116.568" r="14.647"/>
<ellipse transform="matrix(0.9659 0.2589 -0.2589 0.9659 34.9164 -30.5124)" fill="none" stroke="#000000" stroke-miterlimit="10" cx="133.315" cy="117.322" rx="6.641" ry="6.718"/>
<circle fill="none" stroke="#000000" stroke-miterlimit="10" cx="161.282" cy="126.146" r="14.646"/>
<ellipse transform="matrix(0.9659 0.2589 -0.2589 0.9659 38.6153 -39.4392)" fill="none" stroke="#000000" stroke-miterlimit="10" cx="169.054" cy="126.898" rx="6.641" ry="6.719"/>
<path fill="none" stroke="#000000" stroke-miterlimit="10" d="M125.78,170.85c3.873,6.85,12.649,9.203,19.624,5.258"/>
</svg>
