<?xml version="1.0" encoding="utf-8"?>
<!-- Generator: Adobe Illustrator 16.0.4, SVG Export Plug-In . SVG Version: 6.00 Build 0)  -->
<!DOCTYPE svg PUBLIC "-//W3C//DTD SVG 1.1//EN" "http://www.w3.org/Graphics/SVG/1.1/DTD/svg11.dtd">
<svg version="1.1" id="Layer_1" xmlns="http://www.w3.org/2000/svg" xmlns:xlink="http://www.w3.org/1999/xlink" x="0px" y="0px"
	 width="296px" height="274.667px" viewBox="0 0 296 274.667" enable-background="new 0 0 296 274.667" xml:space="preserve">
<polyline fill="none" stroke="#000000" stroke-miterlimit="10" points="177.273,110.377 240.916,61.757 166.101,52.169 "/>
<polyline fill="none" stroke="#000000" stroke-miterlimit="10" points="168.07,144.73 198.873,218.655 129.289,189.554 "/>
<path fill="none" stroke="#000000" stroke-miterlimit="10" d="M86.72,196.02c-35.565-9.53-54.19-55.345-41.597-102.336
	C57.71,46.698,96.75,16.331,132.315,25.859c35.563,9.53,54.188,55.348,41.595,102.333C161.322,175.184,122.285,205.551,86.72,196.02
	z"/>
<path fill="none" stroke="#000000" stroke-miterlimit="10" d="M88.115,170.145"/>
<path fill="none" stroke="#000000" stroke-miterlimit="10" d="M119.172,54.233"/>
<line fill="none" stroke="#000000" stroke-miterlimit="10" x1="122.812" y1="101.439" x2="103.759" y2="112.44"/>
<line fill="none" stroke="#000000" stroke-miterlimit="10" x1="103.592" y1="112.599" x2="114.299" y2="133.529"/>
<line fill="none" stroke="#000000" stroke-miterlimit="10" x1="122.98" y1="101.842" x2="114.441" y2="133.72"/>
<path fill="none" stroke="#000000" stroke-miterlimit="10" d="M104.402,113.441c-12.51-3.354-27.684,12.786-33.93,36.082"/>
<path fill="none" stroke="#000000" stroke-miterlimit="10" d="M104.394,112.654c-11.863-3.18-16.806-23.141-11.048-44.625"/>
<path fill="none" stroke="#000000" stroke-miterlimit="10" d="M143.383,112.8c-7.814-2.095-12.449-10.124-10.358-17.939
	c2.095-7.813,10.125-12.449,17.94-10.357c7.811,2.096,12.449,10.125,10.355,17.941C159.226,110.255,151.193,114.892,143.383,112.8z"
	/>
<ellipse transform="matrix(-0.259 0.9659 -0.9659 -0.259 287.1349 -7.4344)" fill="none" stroke="#000000" stroke-miterlimit="10" cx="146.419" cy="106.422" rx="6.642" ry="6.716"/>
<circle fill="none" stroke="#000000" stroke-miterlimit="10" cx="137.595" cy="134.391" r="14.646"/>
<path fill="none" stroke="#000000" stroke-miterlimit="10" d="M135.125,148.576c-3.584-0.958-5.723-4.61-4.771-8.152
	c0.951-3.54,4.623-5.636,8.209-4.677c3.581,0.961,5.715,4.614,4.77,8.152C142.382,147.442,138.707,149.537,135.125,148.576z"/>
<path fill="none" stroke="#000000" stroke-miterlimit="10" d="M92.891,98.889c-6.849,3.873-9.202,12.648-5.255,19.624"/>
</svg>
