<?xml version="1.0" encoding="utf-8"?>
<!-- Generator: Adobe Illustrator 16.0.4, SVG Export Plug-In . SVG Version: 6.00 Build 0)  -->
<!DOCTYPE svg PUBLIC "-//W3C//DTD SVG 1.1//EN" "http://www.w3.org/Graphics/SVG/1.1/DTD/svg11.dtd">
<svg version="1.1" id="Layer_1" xmlns="http://www.w3.org/2000/svg" xmlns:xlink="http://www.w3.org/1999/xlink" x="0px" y="0px"
	 width="296px" height="274.667px" viewBox="0 0 296 274.667" enable-background="new 0 0 296 274.667" xml:space="preserve">
<polyline fill="none" stroke="#000000" stroke-miterlimit="10" points="115.314,98.412 37.997,77.521 75.936,142.703 "/>
<polyline fill="none" stroke="#000000" stroke-miterlimit="10" points="148.171,84.8 188.068,15.363 207.337,88.279 "/>
<path fill="none" stroke="#000000" stroke-miterlimit="10" d="M238.382,118.118c14.091,34.016-10.917,76.681-55.865,95.296
	c-44.94,18.617-92.798,6.134-106.889-27.882c-14.085-34.021,10.925-76.686,55.863-95.301
	C176.439,71.611,224.295,84.1,238.382,118.118z"/>
<path fill="none" stroke="#000000" stroke-miterlimit="10" d="M217.007,132.762"/>
<path fill="none" stroke="#000000" stroke-miterlimit="10" d="M106.141,178.681"/>
<line fill="none" stroke="#000000" stroke-miterlimit="10" x1="141.376" y1="147.062" x2="161.702" y2="155.479"/>
<line fill="none" stroke="#000000" stroke-miterlimit="10" x1="161.929" y1="155.513" x2="172.016" y2="134.278"/>
<line fill="none" stroke="#000000" stroke-miterlimit="10" x1="141.595" y1="146.68" x2="172.082" y2="134.047"/>
<path fill="none" stroke="#000000" stroke-miterlimit="10" d="M162.103,154.359c4.955,11.968,26.996,14.176,49.283,4.953"/>
<path fill="none" stroke="#000000" stroke-miterlimit="10" d="M161.486,154.842c4.701,11.35-8.129,27.425-28.678,35.935"/>
<path fill="none" stroke="#000000" stroke-miterlimit="10" d="M137.868,123.824c3.096,7.475-0.453,16.036-7.925,19.139
	c-7.479,3.093-16.045-0.454-19.144-7.929c-3.089-7.472,0.458-16.04,7.933-19.136C126.203,112.804,134.77,116.353,137.868,123.824z"
	/>
<path fill="none" stroke="#000000" stroke-miterlimit="10" d="M137.095,122.76c1.419,3.423-0.181,7.339-3.569,8.744
	c-3.384,1.406-7.283-0.242-8.702-3.665c-1.424-3.425,0.179-7.344,3.572-8.747C131.777,117.688,135.678,119.33,137.095,122.76z"/>
<path fill="none" stroke="#000000" stroke-miterlimit="10" d="M172.05,109.665c3.096,7.476-0.457,16.042-7.928,19.138
	c-7.473,3.095-16.041-0.451-19.135-7.928c-3.097-7.472,0.448-16.037,7.925-19.134C160.384,98.643,168.952,102.191,172.05,109.665z"
	/>
<path fill="none" stroke="#000000" stroke-miterlimit="10" d="M171.276,108.594c1.421,3.43-0.175,7.348-3.563,8.75
	c-3.389,1.398-7.283-0.234-8.707-3.667c-1.417-3.422,0.181-7.34,3.567-8.746C165.958,103.527,169.855,105.172,171.276,108.594z"/>
<path fill="none" stroke="#000000" stroke-miterlimit="10" d="M157.568,172.354c7.242,3.071,15.639-0.401,18.768-7.78"/>
</svg>
