<?xml version="1.0" encoding="utf-8"?>
<!-- Generator: Adobe Illustrator 16.0.4, SVG Export Plug-In . SVG Version: 6.00 Build 0)  -->
<!DOCTYPE svg PUBLIC "-//W3C//DTD SVG 1.1//EN" "http://www.w3.org/Graphics/SVG/1.1/DTD/svg11.dtd">
<svg version="1.1" id="Layer_1" xmlns="http://www.w3.org/2000/svg" xmlns:xlink="http://www.w3.org/1999/xlink" x="0px" y="0px"
	 width="296px" height="274.667px" viewBox="0 0 296 274.667" enable-background="new 0 0 296 274.667" xml:space="preserve">
<polyline fill="none" stroke="#000000" stroke-miterlimit="10" points="173.891,99.634 222.783,36.2 148.035,46.301 "/>
<polyline fill="none" stroke="#000000" stroke-miterlimit="10" points="173.894,135.199 222.781,198.633 148.036,188.533 "/>
<path fill="none" stroke="#000000" stroke-miterlimit="10" d="M108.591,205.795c-36.819,0-66.668-39.434-66.666-88.083
	c-0.002-48.643,29.847-88.079,66.667-88.08c36.818,0.001,66.666,39.438,66.664,88.081
	C175.257,166.361,145.411,205.797,108.591,205.795z"/>
<path fill="none" stroke="#000000" stroke-miterlimit="10" d="M103.241,180.441"/>
<path fill="none" stroke="#000000" stroke-miterlimit="10" d="M103.24,60.441"/>
<line fill="none" stroke="#000000" stroke-miterlimit="10" x1="118.974" y1="105.097" x2="103.417" y2="120.654"/>
<line fill="none" stroke="#000000" stroke-miterlimit="10" x1="103.297" y1="120.851" x2="119.056" y2="138.297"/>
<line fill="none" stroke="#000000" stroke-miterlimit="10" x1="119.241" y1="105.442" x2="119.243" y2="138.443"/>
<path fill="none" stroke="#000000" stroke-miterlimit="10" d="M104.297,121.455c-12.952-0.002-23.432,19.516-23.435,43.635"/>
<path fill="none" stroke="#000000" stroke-miterlimit="10" d="M104.085,120.697c-12.282-0.001-22.221-18.003-22.221-40.245"/>
<circle fill="none" stroke="#000000" stroke-miterlimit="10" cx="141.784" cy="96.098" r="14.647"/>
<ellipse fill="none" stroke="#000000" stroke-miterlimit="10" cx="143.066" cy="103.8" rx="6.716" ry="6.642"/>
<path fill="none" stroke="#000000" stroke-miterlimit="10" d="M141.781,147.746c-8.089,0-14.643-6.559-14.644-14.648
	c0-8.087,6.555-14.646,14.645-14.644c8.089-0.002,14.646,6.555,14.646,14.644C156.428,141.189,149.872,147.744,141.781,147.746z"/>
<path fill="none" stroke="#000000" stroke-miterlimit="10" d="M143.066,147.441c-3.71,0.002-6.721-2.973-6.719-6.641
	c0.002-3.666,3.007-6.641,6.72-6.643c3.708,0.002,6.715,2.979,6.717,6.641C149.783,144.467,146.776,147.441,143.066,147.441z"/>
<path fill="none" stroke="#000000" stroke-miterlimit="10" d="M89.412,110.377c-5.613,5.513-5.615,14.599,0.003,20.314"/>
</svg>
