<?xml version="1.0" encoding="utf-8"?>
<!-- Generator: Adobe Illustrator 16.0.4, SVG Export Plug-In . SVG Version: 6.00 Build 0)  -->
<!DOCTYPE svg PUBLIC "-//W3C//DTD SVG 1.1//EN" "http://www.w3.org/Graphics/SVG/1.1/DTD/svg11.dtd">
<svg version="1.1" id="Layer_1" xmlns="http://www.w3.org/2000/svg" xmlns:xlink="http://www.w3.org/1999/xlink" x="0px" y="0px"
	 width="296px" height="274.667px" viewBox="0 0 296 274.667" enable-background="new 0 0 296 274.667" xml:space="preserve">
<polyline fill="none" stroke="#000000" stroke-miterlimit="10" points="128.59,150.499 117.97,229.882 177.646,183.76 "/>
<polyline fill="none" stroke="#000000" stroke-miterlimit="10" points="110.807,119.701 36.754,89.208 106.534,60.584 "/>
<path fill="none" stroke="#000000" stroke-miterlimit="10" d="M132.064,25.91c31.885-18.407,77.451,0.815,101.773,42.949
	c24.326,42.128,18.192,91.204-13.695,109.613c-31.889,18.406-77.454-0.82-101.773-42.945
	C94.042,93.396,100.175,44.319,132.064,25.91z"/>
<path fill="none" stroke="#000000" stroke-miterlimit="10" d="M149.373,45.192"/>
<path fill="none" stroke="#000000" stroke-miterlimit="10" d="M209.372,149.115"/>
<line fill="none" stroke="#000000" stroke-miterlimit="10" x1="173.421" y1="118.309" x2="179.113" y2="97.06"/>
<line fill="none" stroke="#000000" stroke-miterlimit="10" x1="179.121" y1="96.828" x2="156.748" y2="89.599"/>
<line fill="none" stroke="#000000" stroke-miterlimit="10" x1="173.017" y1="118.144" x2="156.513" y2="89.565"/>
<path fill="none" stroke="#000000" stroke-miterlimit="10" d="M177.951,96.808c11.219-6.476,10.533-28.618-1.521-49.51"/>
<path fill="none" stroke="#000000" stroke-miterlimit="10" d="M178.512,97.356c10.636-6.142,28.249,4.479,39.37,23.741"/>
<path fill="none" stroke="#000000" stroke-miterlimit="10" d="M150.841,124.821c7.007-4.044,15.959-1.643,20.01,5.36
	c4.043,7.01,1.643,15.966-5.361,20.013c-7.005,4.039-15.964,1.64-20.009-5.368C141.439,137.825,143.838,128.868,150.841,124.821z"/>
<path fill="none" stroke="#000000" stroke-miterlimit="10" d="M149.885,125.726c3.208-1.853,7.3-0.779,9.136,2.396
	c1.836,3.174,0.713,7.254-2.498,9.108c-3.209,1.857-7.303,0.78-9.137-2.398C145.553,131.659,146.672,127.579,149.885,125.726z"/>
<path fill="none" stroke="#000000" stroke-miterlimit="10" d="M132.341,92.778c7.008-4.045,15.964-1.64,20.009,5.363
	c4.046,7.003,1.647,15.962-5.362,20.005c-7.004,4.046-15.958,1.648-20.004-5.36C122.936,105.781,125.336,96.826,132.341,92.778z"/>
<path fill="none" stroke="#000000" stroke-miterlimit="10" d="M131.381,93.686c3.215-1.856,7.309-0.785,9.142,2.392
	c1.827,3.176,0.716,7.252-2.501,9.11c-3.208,1.854-7.301,0.779-9.135-2.392C127.053,99.619,128.173,95.541,131.381,93.686z"/>
<path fill="none" stroke="#000000" stroke-miterlimit="10" d="M196.384,98.956c2.101-7.581-2.439-15.453-10.164-17.593"/>
</svg>
