<?xml version="1.0" encoding="utf-8"?>
<!-- Generator: Adobe Illustrator 16.0.4, SVG Export Plug-In . SVG Version: 6.00 Build 0)  -->
<!DOCTYPE svg PUBLIC "-//W3C//DTD SVG 1.1//EN" "http://www.w3.org/Graphics/SVG/1.1/DTD/svg11.dtd">
<svg version="1.1" id="Layer_1" xmlns="http://www.w3.org/2000/svg" xmlns:xlink="http://www.w3.org/1999/xlink" x="0px" y="0px"
	 width="296px" height="274.667px" viewBox="0 0 296 274.667" enable-background="new 0 0 296 274.667" xml:space="preserve">
<polyline fill="none" stroke="#000000" stroke-miterlimit="10" points="146.603,84.55 116.111,10.493 87.485,80.276 "/>
<polyline fill="none" stroke="#000000" stroke-miterlimit="10" points="177.403,102.333 256.783,91.711 210.662,151.394 "/>
<ellipse transform="matrix(0.866 0.5 -0.5 0.866 92.4365 -44.689)" fill="none" stroke="#000000" stroke-miterlimit="10" cx="129.609" cy="150.144" rx="88.081" ry="66.666"/>
<path fill="none" stroke="#000000" stroke-miterlimit="10" d="M181.257,186.141"/>
<path fill="none" stroke="#000000" stroke-miterlimit="10" d="M77.334,126.141"/>
<line fill="none" stroke="#000000" stroke-miterlimit="10" x1="124.432" y1="135.071" x2="129.979" y2="155.773"/>
<line fill="none" stroke="#000000" stroke-miterlimit="10" x1="129.678" y1="156.296" x2="152.667" y2="151.372"/>
<line fill="none" stroke="#000000" stroke-miterlimit="10" x1="124.306" y1="134.783" x2="152.886" y2="151.284"/>
<path fill="none" stroke="#000000" stroke-miterlimit="10" d="M130.7,155.73c-6.477,11.218,5.186,30.053,26.071,42.114"/>
<path fill="none" stroke="#000000" stroke-miterlimit="10" d="M129.938,155.536c-6.142,10.637-26.699,10.245-45.962-0.878"/>
<circle fill="none" stroke="#000000" stroke-miterlimit="10" cx="127.486" cy="110.59" r="14.646"/>
<ellipse transform="matrix(0.866 0.5001 -0.5001 0.866 74.7421 -52.2216)" fill="none" stroke="#000000" stroke-miterlimit="10" cx="134.797" cy="113.33" rx="6.641" ry="6.717"/>
<circle fill="none" stroke="#000000" stroke-miterlimit="10" cx="159.528" cy="129.091" r="14.646"/>
<path fill="none" stroke="#000000" stroke-miterlimit="10" d="M172.591,135.15c-1.854,3.213-5.935,4.333-9.109,2.499
	c-3.176-1.836-4.248-5.927-2.394-9.141c1.854-3.211,5.937-4.328,9.11-2.496C173.375,127.848,174.447,131.938,172.591,135.15z"/>
<path fill="none" stroke="#000000" stroke-miterlimit="10" d="M113.666,163.084c1.968,7.617,9.836,12.163,17.594,10.156"/>
</svg>
