<?xml version="1.0" encoding="utf-8"?>
<!-- Generator: Adobe Illustrator 16.0.4, SVG Export Plug-In . SVG Version: 6.00 Build 0)  -->
<!DOCTYPE svg PUBLIC "-//W3C//DTD SVG 1.1//EN" "http://www.w3.org/Graphics/SVG/1.1/DTD/svg11.dtd">
<svg version="1.1" id="Layer_1" xmlns="http://www.w3.org/2000/svg" xmlns:xlink="http://www.w3.org/1999/xlink" x="0px" y="0px"
	 width="296px" height="274.667px" viewBox="0 0 296 274.667" enable-background="new 0 0 296 274.667" xml:space="preserve">
<polyline fill="none" stroke="#000000" stroke-miterlimit="10" points="172.46,141.504 246.387,172.31 217.285,102.727 "/>
<polyline fill="none" stroke="#000000" stroke-miterlimit="10" points="138.107,150.712 89.488,214.349 79.899,139.537 "/>
<path fill="none" stroke="#000000" stroke-miterlimit="10" d="M53.016,105.903c-9.529-35.564,20.835-74.602,67.827-87.19
	c46.985-12.593,92.803,6.033,102.333,41.599c9.526,35.564-20.839,74.602-67.825,87.19C108.36,160.096,62.543,141.47,53.016,105.903z
	"/>
<path fill="none" stroke="#000000" stroke-miterlimit="10" d="M76.121,94.175"/>
<path fill="none" stroke="#000000" stroke-miterlimit="10" d="M192.031,63.117"/>
<line fill="none" stroke="#000000" stroke-miterlimit="10" x1="152.97" y1="89.871" x2="133.916" y2="78.872"/>
<line fill="none" stroke="#000000" stroke-miterlimit="10" x1="133.695" y1="78.807" x2="120.922" y2="98.544"/>
<line fill="none" stroke="#000000" stroke-miterlimit="10" x1="152.705" y1="90.217" x2="120.829" y2="98.763"/>
<path fill="none" stroke="#000000" stroke-miterlimit="10" d="M133.372,79.93c-3.352-12.513-24.916-17.582-48.214-11.345"/>
<path fill="none" stroke="#000000" stroke-miterlimit="10" d="M134.049,79.528c-3.18-11.862,11.636-26.125,33.12-31.881"/>
<path fill="none" stroke="#000000" stroke-miterlimit="10" d="M153.417,113.366c-2.093-7.816,2.543-15.842,10.356-17.939
	c7.816-2.092,15.846,2.543,17.941,10.357c2.089,7.812-2.545,15.844-10.361,17.938C163.542,125.814,155.511,121.177,153.417,113.366z
	"/>
<ellipse transform="matrix(-0.966 0.2586 -0.2586 -0.966 344.6296 180.2758)" fill="none" stroke="#000000" stroke-miterlimit="10" cx="160.457" cy="112.807" rx="6.642" ry="6.715"/>
<path fill="none" stroke="#000000" stroke-miterlimit="10" d="M117.677,122.941c-2.095-7.814,2.546-15.844,10.36-17.937
	c7.811-2.097,15.843,2.539,17.935,10.355c2.095,7.812-2.54,15.843-10.355,17.937C127.8,135.392,119.773,130.756,117.677,122.941z"/>
<path fill="none" stroke="#000000" stroke-miterlimit="10" d="M118.304,124.104c-0.961-3.586,1.132-7.265,4.676-8.211
	c3.541-0.945,7.191,1.188,8.153,4.772c0.96,3.581-1.137,7.255-4.675,8.205C122.916,129.822,119.265,127.683,118.304,124.104z"/>
<path fill="none" stroke="#000000" stroke-miterlimit="10" d="M140.218,62.683c-6.779-3.995-15.556-1.645-19.622,5.262"/>
</svg>
