<?xml version="1.0" encoding="utf-8"?>
<!-- Generator: Adobe Illustrator 16.0.4, SVG Export Plug-In . SVG Version: 6.00 Build 0)  -->
<!DOCTYPE svg PUBLIC "-//W3C//DTD SVG 1.1//EN" "http://www.w3.org/Graphics/SVG/1.1/DTD/svg11.dtd">
<svg version="1.1" id="Layer_1" xmlns="http://www.w3.org/2000/svg" xmlns:xlink="http://www.w3.org/1999/xlink" x="0px" y="0px"
	 width="296px" height="274.667px" viewBox="0 0 296 274.667" enable-background="new 0 0 296 274.667" xml:space="preserve">
<polyline fill="none" stroke="#000000" stroke-miterlimit="10" points="178.74,131.644 258.828,131.814 205.312,78.666 "/>
<polyline fill="none" stroke="#000000" stroke-miterlimit="10" points="150.525,153.299 129.959,230.695 92.472,165.248 "/>
<path fill="none" stroke="#000000" stroke-miterlimit="10" d="M54.764,144.463c-22.415-29.209-9.3-76.896,29.297-106.509
	c38.588-29.614,88.047-29.941,110.462-0.729c22.412,29.211,9.296,76.897-29.297,106.508
	C126.632,173.35,77.177,173.676,54.764,144.463z"/>
<path fill="none" stroke="#000000" stroke-miterlimit="10" d="M71.621,124.786"/>
<path fill="none" stroke="#000000" stroke-miterlimit="10" d="M166.824,51.735"/>
<line fill="none" stroke="#000000" stroke-miterlimit="10" x1="140.974" y1="91.4" x2="119.161" y2="88.53"/>
<line fill="none" stroke="#000000" stroke-miterlimit="10" x1="118.932" y1="88.554" x2="114.685" y2="111.676"/>
<line fill="none" stroke="#000000" stroke-miterlimit="10" x1="140.861" y1="91.822" x2="114.682" y2="111.915"/>
<path fill="none" stroke="#000000" stroke-miterlimit="10" d="M119.062,89.715c-7.884-10.277-29.748-6.709-48.884,7.971"/>
<path fill="none" stroke="#000000" stroke-miterlimit="10" d="M119.535,89.085c-7.477-9.743,0.753-28.589,18.4-42.129"/>
<path fill="none" stroke="#000000" stroke-miterlimit="10" d="M150.377,112.936c-4.924-6.419-3.713-15.609,2.704-20.537
	c6.419-4.925,15.612-3.715,20.538,2.703c4.92,6.418,3.713,15.612-2.707,20.538C164.496,120.563,155.301,119.35,150.377,112.936z"/>
<ellipse transform="matrix(-0.7935 0.6086 -0.6086 -0.7935 347.7595 101.445)" fill="none" stroke="#000000" stroke-miterlimit="10" cx="156.668" cy="109.725" rx="6.642" ry="6.715"/>
<path fill="none" stroke="#000000" stroke-miterlimit="10" d="M121.022,135.459c-4.925-6.417-3.71-15.611,2.708-20.536
	c6.415-4.925,15.609-3.717,20.533,2.703c4.925,6.417,3.715,15.61-2.703,20.536C135.14,143.088,125.949,141.877,121.022,135.459z"/>
<path fill="none" stroke="#000000" stroke-miterlimit="10" d="M122.047,136.293c-2.26-2.943-1.734-7.143,1.178-9.374
	c2.909-2.229,7.099-1.656,9.359,1.288c2.257,2.941,1.726,7.138-1.179,9.371C128.496,139.811,124.304,139.232,122.047,136.293z"/>
<path fill="none" stroke="#000000" stroke-miterlimit="10" d="M118.788,71.161c-7.791-1.096-15.001,4.435-16.115,12.371"/>
</svg>
