<?xml version="1.0" encoding="utf-8"?>
<!-- Generator: Adobe Illustrator 16.0.4, SVG Export Plug-In . SVG Version: 6.00 Build 0)  -->
<!DOCTYPE svg PUBLIC "-//W3C//DTD SVG 1.1//EN" "http://www.w3.org/Graphics/SVG/1.1/DTD/svg11.dtd">
<svg version="1.1" id="Layer_1" xmlns="http://www.w3.org/2000/svg" xmlns:xlink="http://www.w3.org/1999/xlink" x="0px" y="0px"
	 width="296px" height="274.667px" viewBox="0 0 296 274.667" enable-background="new 0 0 296 274.667" xml:space="preserve">
<polyline fill="none" stroke="#000000" stroke-miterlimit="10" points="168.396,91.28 199.203,17.352 129.616,46.456 "/>
<polyline fill="none" stroke="#000000" stroke-miterlimit="10" points="177.602,125.633 241.243,174.252 166.429,183.842 "/>
<ellipse transform="matrix(0.2588 0.9659 -0.9659 0.2588 202.8936 -13.1252)" fill="none" stroke="#000000" stroke-miterlimit="10" cx="109.999" cy="125.645" rx="88.081" ry="66.666"/>
<path fill="none" stroke="#000000" stroke-miterlimit="10" d="M121.066,187.619"/>
<path fill="none" stroke="#000000" stroke-miterlimit="10" d="M90.007,71.708"/>
<line fill="none" stroke="#000000" stroke-miterlimit="10" x1="116.763" y1="110.771" x2="105.763" y2="129.824"/>
<line fill="none" stroke="#000000" stroke-miterlimit="10" x1="105.698" y1="130.045" x2="125.435" y2="142.818"/>
<line fill="none" stroke="#000000" stroke-miterlimit="10" x1="117.111" y1="111.035" x2="125.653" y2="142.91"/>
<path fill="none" stroke="#000000" stroke-miterlimit="10" d="M106.82,130.369c-12.511,3.35-17.583,24.917-11.343,48.213"/>
<path fill="none" stroke="#000000" stroke-miterlimit="10" d="M106.419,129.692c-11.864,3.177-26.124-11.638-31.88-33.122"/>
<path fill="none" stroke="#000000" stroke-miterlimit="10" d="M140.257,110.322c-7.813,2.095-15.843-2.542-17.939-10.355
	c-2.093-7.814,2.544-15.845,10.357-17.94c7.812-2.091,15.843,2.544,17.937,10.359C152.706,100.198,148.068,108.23,140.257,110.322z"
	/>
<ellipse transform="matrix(0.2586 0.966 -0.966 0.2586 203.3347 -58.3761)" fill="none" stroke="#000000" stroke-miterlimit="10" cx="139.699" cy="103.282" rx="6.642" ry="6.716"/>
<path fill="none" stroke="#000000" stroke-miterlimit="10" d="M149.832,146.062c-7.813,2.094-15.841-2.545-17.936-10.359
	c-2.093-7.811,2.542-15.842,10.356-17.935c7.813-2.095,15.844,2.541,17.938,10.354C162.283,135.939,157.646,143.967,149.832,146.062
	z"/>
<path fill="none" stroke="#000000" stroke-miterlimit="10" d="M150.994,145.436c-3.583,0.963-7.262-1.131-8.208-4.674
	c-0.946-3.543,1.187-7.193,4.771-8.156c3.582-0.958,7.257,1.139,8.208,4.676C156.712,140.824,154.578,144.477,150.994,145.436z"/>
<path fill="none" stroke="#000000" stroke-miterlimit="10" d="M89.576,123.522c-3.995,6.776-1.645,15.554,5.26,19.621"/>
</svg>
