<?xml version="1.0" encoding="utf-8"?>
<!-- Generator: Adobe Illustrator 16.0.4, SVG Export Plug-In . SVG Version: 6.00 Build 0)  -->
<!DOCTYPE svg PUBLIC "-//W3C//DTD SVG 1.1//EN" "http://www.w3.org/Graphics/SVG/1.1/DTD/svg11.dtd">
<svg version="1.1" id="Layer_1" xmlns="http://www.w3.org/2000/svg" xmlns:xlink="http://www.w3.org/1999/xlink" x="0px" y="0px"
	 width="296px" height="274.667px" viewBox="0 0 296 274.667" enable-background="new 0 0 296 274.667" xml:space="preserve">
<polyline fill="none" stroke="#000000" stroke-miterlimit="10" points="113.243,101.697 33.861,91.078 79.984,150.75 "/>
<polyline fill="none" stroke="#000000" stroke-miterlimit="10" points="144.043,83.913 174.535,9.863 203.158,79.64 "/>
<path fill="none" stroke="#000000" stroke-miterlimit="10" d="M237.832,105.171c18.41,31.885-0.814,77.45-42.949,101.772
	c-42.125,24.324-91.203,18.193-109.614-13.691c-18.405-31.891,0.822-77.456,42.946-101.777
	C170.347,67.148,219.424,73.282,237.832,105.171z"/>
<path fill="none" stroke="#000000" stroke-miterlimit="10" d="M218.55,122.479"/>
<path fill="none" stroke="#000000" stroke-miterlimit="10" d="M114.626,182.477"/>
<line fill="none" stroke="#000000" stroke-miterlimit="10" x1="145.433" y1="146.529" x2="166.683" y2="152.221"/>
<line fill="none" stroke="#000000" stroke-miterlimit="10" x1="166.914" y1="152.225" x2="174.142" y2="129.855"/>
<line fill="none" stroke="#000000" stroke-miterlimit="10" x1="145.6" y1="146.121" x2="174.177" y2="129.618"/>
<path fill="none" stroke="#000000" stroke-miterlimit="10" d="M166.935,151.059c6.475,11.219,28.615,10.531,49.508-1.521"/>
<path fill="none" stroke="#000000" stroke-miterlimit="10" d="M166.386,151.617c6.143,10.639-4.48,28.252-23.742,39.371"/>
<path fill="none" stroke="#000000" stroke-miterlimit="10" d="M138.921,123.948c4.045,7.007,1.644,15.958-5.358,20.009
	c-7.011,4.043-15.967,1.645-20.015-5.361c-4.038-7.004-1.64-15.962,5.367-20.008C125.918,114.544,134.875,116.945,138.921,123.948z"
	/>
<path fill="none" stroke="#000000" stroke-miterlimit="10" d="M138.017,122.994c1.853,3.208,0.778,7.3-2.397,9.135
	c-3.172,1.836-7.253,0.711-9.106-2.499c-1.859-3.209-0.782-7.304,2.399-9.138C132.082,118.659,136.164,119.779,138.017,122.994z"/>
<path fill="none" stroke="#000000" stroke-miterlimit="10" d="M170.963,105.449c4.045,7.008,1.642,15.964-5.362,20.009
	c-7.005,4.043-15.962,1.646-20.005-5.363c-4.046-7.003-1.649-15.958,5.36-20.004C157.958,96.043,166.916,98.443,170.963,105.449z"/>
<path fill="none" stroke="#000000" stroke-miterlimit="10" d="M170.056,104.488c1.855,3.214,0.785,7.307-2.391,9.14
	c-3.178,1.829-7.252,0.719-9.112-2.499c-1.851-3.208-0.778-7.301,2.396-9.137C164.123,100.159,168.201,101.28,170.056,104.488z"/>
<path fill="none" stroke="#000000" stroke-miterlimit="10" d="M164.788,169.492c7.581,2.1,15.452-2.439,17.591-10.164"/>
</svg>
