<?xml version="1.0" encoding="utf-8"?>
<!-- Generator: Adobe Illustrator 16.0.4, SVG Export Plug-In . SVG Version: 6.00 Build 0)  -->
<!DOCTYPE svg PUBLIC "-//W3C//DTD SVG 1.1//EN" "http://www.w3.org/Graphics/SVG/1.1/DTD/svg11.dtd">
<svg version="1.1" id="Layer_1" xmlns="http://www.w3.org/2000/svg" xmlns:xlink="http://www.w3.org/1999/xlink" x="0px" y="0px"
	 width="296px" height="274.667px" viewBox="0 0 296 274.667" enable-background="new 0 0 296 274.667" xml:space="preserve">
<polyline fill="none" stroke="#000000" stroke-miterlimit="10" points="139.801,152.671 160.367,230.075 197.851,164.626 "/>
<polyline fill="none" stroke="#000000" stroke-miterlimit="10" points="111.584,131.022 31.5,131.189 85.014,78.04 "/>
<path fill="none" stroke="#000000" stroke-miterlimit="10" d="M95.333,36.237c22.413-29.209,71.868-28.887,110.462,0.732
	c38.596,29.611,51.709,77.299,29.293,106.51c-22.416,29.209-71.871,28.882-110.459-0.729
	C86.029,113.135,72.915,65.448,95.333,36.237z"/>
<path fill="none" stroke="#000000" stroke-miterlimit="10" d="M118.702,47.427"/>
<path fill="none" stroke="#000000" stroke-miterlimit="10" d="M213.903,120.479"/>
<line fill="none" stroke="#000000" stroke-miterlimit="10" x1="168.9" y1="105.775" x2="166.027" y2="83.964"/>
<line fill="none" stroke="#000000" stroke-miterlimit="10" x1="165.945" y1="83.749" x2="142.51" y2="85.631"/>
<line fill="none" stroke="#000000" stroke-miterlimit="10" x1="168.462" y1="105.777" x2="142.279" y2="85.689"/>
<path fill="none" stroke="#000000" stroke-miterlimit="10" d="M164.856,84.177c7.888-10.275-1.219-30.471-20.351-45.157"/>
<path fill="none" stroke="#000000" stroke-miterlimit="10" d="M165.585,84.47c7.478-9.744,27.812-6.672,45.458,6.868"/>
<path fill="none" stroke="#000000" stroke-miterlimit="10" d="M150.532,120.433c4.926-6.417,14.115-7.625,20.538-2.704
	c6.417,4.928,7.628,14.12,2.705,20.54c-4.927,6.411-14.121,7.625-20.541,2.698C146.821,136.044,145.61,126.852,150.532,120.433z"/>
<path fill="none" stroke="#000000" stroke-miterlimit="10" d="M149.994,121.634c2.256-2.939,6.447-3.515,9.357-1.282
	c2.91,2.23,3.437,6.429,1.18,9.371c-2.255,2.943-6.449,3.517-9.36,1.282C148.262,128.773,147.735,124.577,149.994,121.634z"/>
<path fill="none" stroke="#000000" stroke-miterlimit="10" d="M121.177,97.909c4.926-6.419,14.121-7.626,20.538-2.702
	c6.418,4.921,7.63,14.116,2.702,20.533c-4.922,6.419-14.114,7.631-20.533,2.703C117.463,113.521,116.255,104.329,121.177,97.909z"/>
<path fill="none" stroke="#000000" stroke-miterlimit="10" d="M120.637,99.113c2.261-2.944,6.452-3.522,9.361-1.288
	c2.903,2.234,3.437,6.426,1.175,9.374c-2.255,2.94-6.446,3.514-9.354,1.286C118.909,106.253,118.383,102.056,120.637,99.113z"/>
<path fill="none" stroke="#000000" stroke-miterlimit="10" d="M182.708,79.107c-0.959-7.808-8.167-13.343-16.121-12.364"/>
</svg>
