<?xml version="1.0" encoding="utf-8"?>
<!-- Generator: Adobe Illustrator 16.0.4, SVG Export Plug-In . SVG Version: 6.00 Build 0)  -->
<!DOCTYPE svg PUBLIC "-//W3C//DTD SVG 1.1//EN" "http://www.w3.org/Graphics/SVG/1.1/DTD/svg11.dtd">
<svg version="1.1" id="Layer_1" xmlns="http://www.w3.org/2000/svg" xmlns:xlink="http://www.w3.org/1999/xlink" x="0px" y="0px"
	 width="296px" height="274.667px" viewBox="0 0 296 274.667" enable-background="new 0 0 296 274.667" xml:space="preserve">
<polyline fill="none" stroke="#000000" stroke-miterlimit="10" points="148.542,151.506 188.439,220.949 207.708,148.029 "/>
<polyline fill="none" stroke="#000000" stroke-miterlimit="10" points="115.683,137.898 38.371,158.787 76.305,93.598 "/>
<path fill="none" stroke="#000000" stroke-miterlimit="10" d="M75.453,50.549c14.09-34.016,61.943-46.504,106.888-27.882
	c44.944,18.611,69.953,61.281,55.861,95.298c-14.092,34.015-61.945,46.5-106.884,27.884C86.369,127.234,61.359,84.566,75.453,50.549
	z"/>
<path fill="none" stroke="#000000" stroke-miterlimit="10" d="M100.922,55.309"/>
<path fill="none" stroke="#000000" stroke-miterlimit="10" d="M211.787,101.232"/>
<line fill="none" stroke="#000000" stroke-miterlimit="10" x1="164.511" y1="98.677" x2="156.09" y2="78.352"/>
<line fill="none" stroke="#000000" stroke-miterlimit="10" x1="155.956" y1="78.167" x2="133.807" y2="86.049"/>
<line fill="none" stroke="#000000" stroke-miterlimit="10" x1="164.089" y1="98.792" x2="133.599" y2="86.166"/>
<path fill="none" stroke="#000000" stroke-miterlimit="10" d="M155.015,78.861c4.959-11.968-9.063-29.117-31.344-38.352"/>
<path fill="none" stroke="#000000" stroke-miterlimit="10" d="M155.796,78.956c4.699-11.348,25.136-13.644,45.686-5.132"/>
<path fill="none" stroke="#000000" stroke-miterlimit="10" d="M150.562,117.589c3.097-7.475,11.661-11.02,19.137-7.928
	c7.476,3.099,11.023,11.664,7.93,19.14c-3.1,7.468-11.666,11.021-19.142,7.923C151.019,133.629,147.47,125.062,150.562,117.589z"/>
<path fill="none" stroke="#000000" stroke-miterlimit="10" d="M150.354,118.888c1.418-3.424,5.317-5.063,8.707-3.66
	c3.387,1.401,4.983,5.319,3.564,8.746c-1.417,3.427-5.319,5.066-8.709,3.661C150.528,126.233,148.933,122.316,150.354,118.888z"/>
<path fill="none" stroke="#000000" stroke-miterlimit="10" d="M116.378,103.429c3.097-7.475,11.667-11.02,19.139-7.924
	c7.474,3.092,11.024,11.66,7.925,19.134c-3.094,7.475-11.658,11.023-19.134,7.925C116.831,119.47,113.285,110.905,116.378,103.429z"
	/>
<path fill="none" stroke="#000000" stroke-miterlimit="10" d="M116.168,104.733c1.421-3.429,5.32-5.072,8.708-3.667
	c3.383,1.406,4.983,5.318,3.562,8.75c-1.417,3.425-5.317,5.063-8.703,3.664C116.347,112.077,114.753,108.158,116.168,104.733z"/>
<path fill="none" stroke="#000000" stroke-miterlimit="10" d="M170.947,69.344c-2.947-7.295-11.342-10.774-18.771-7.771"/>
</svg>
